<svg xmlns="http://www.w3.org/2000/svg" width="533" height="692" fill="none"><g clip-path="url(#a)"><path fill="#99999F" fill-opacity="0.5" d="M0 666.435 58.63 632l32 25-54 31.5L0 666.435Z"/><path fill="#38226D" d="M83.561 641.413c-5 5.5-4.5 4-14 7.5-7.5 4-10 2.5-9.5-5.5 0-4.695 2.027 0 8-1.5 8.5-8.5 18.813-4.144 15.5-.5Z"/><path fill="#D5D6E0" d="m6 626.75 32 18v36l-31.5-18.5-.5-35.5Zm61.5.25L38 645v35.779L67.5 663v-36Z"/><path fill="#E9EAF4" d="M37.992 609 69 627l-31.008 18L6 627l31.992-18Z"/><path fill="#FFCEA9" d="M22 589.5c0 5.799.918 7-3.5 7S9 596.5 7 591c-1.5-6.5-2.418-16 2-16s13 8.701 13 14.5Z"/><path fill="#5249E3" d="m76 594 12 7.5 3 4-3 49.5h-9.98L76 594Z"/><path fill="#5249E3" d="M16 611h63l-1 5.5-8.5 4v7.5l-7-3.5-14 8-3.5.5-3 1-6-1-5.5-3-6-3.5-7-4-2.5-6 1-5.5Z"/><path stroke="#5249E3" d="m15 613.517 5 4.5 6 3.5 5 2 6.5 1 5-1c.167.167 1.1 0 3.5-2s3-3.5 3-4v-6.5l13.5 8c7.167-4 21.7-12.2 22.5-13 0-5.2.667-6.166 1-6l2.5 1.5 2.5 4-2.5 47c.5.5.7 1.6-2.5 2-3.2.4-6.667-.166-8-.5l-1-37.5-7 3.5-.5 22H68v-14.5l-6-3c.333 0-.4.8-6 4-7 4-2.5 2-11.5 5-7.2 2.4-21-6.666-27-11.5l-2.5-4v-4.5Z"/><path fill="#fff" d="m57.952 564.747 28.787 19.175-1.338 24.63-29.305-19.215 1.856-24.59Z"/><path fill="#fff" d="m57.952 564.747 28.787 19.175-1.338 24.63-29.305-19.215 1.856-24.59Zm-1.856 24.59L85.4 608.552l-23.89 12.623-28.075-21.698 22.66-10.14Z"/><path fill="#4A4A4A" d="m59.5 567.5 25.608 17.329-1.146 22.068L58.5 588.5l1-21Z"/><path fill="#C4C4C4" d="m36.508 600.224 21.104-10.257 25.197 18.389-21.181 11.282-25.12-19.414Z"/><path stroke="#FFCEA9" d="m42 592 2.5 11 3 3c.5.5.8.7 2 1.5s2.5 2 3.5 2h8l2-.5 2-.5 2.5-1 2-1c2-1.2 4.5-2.5 5.5-3l3-1 1.5-1L82 600l2-1.5 1-1c-3.833-1.833-11.6-5.4-12-5l-1 3-1 1-1.5 1-1.5 1-1 .5-1.5.5-3 1-1.5.5-1.5.5H57l-1.5-1-.5-.5-.75-1-.75-1c-.167-.333-.6-1.3-1-2.5s-.5-2.833-.5-3.5l-.5-1.5-1-2s-.7.6-1.5 1-1.5.667-2 1l-1.5.5h-1l-2 1 .5.5 11 12"/><path fill="#FFCEA9" d="m42 588.159 7-1.5 2.5 4 1 6 3 4.5h3l10-2.5 5-4.5 7.5 4.5-3 3.5-4.5 2-5 3-6.5 2.5h-9.5l-4-2.159-1-.5-1.5-2-1-1.841-1.5-4.5-1.5-5.5v-5Z"/><path fill="#FFCEA9" d="M73.865 596.454c-.824 3.675 2.281 4.006.45 3.595-1.83-.41-2.645-3.721-1.822-7.396.824-3.674 2.976-6.32 4.806-5.91 1.83.41-2.61 6.037-3.434 9.711Z"/><path fill="#FFCEA9" d="M78.836 594.032c-4.214 3.672-2.533 2.988-4.627 2.206-2.094-.783-2.278-1.508 1.29-3.453 1.188-3.178 6.609-7.368 8.703-6.585 2.094.782-4.178 4.654-5.366 7.832Z"/><path fill="#FFCEA9" d="M78.836 594.032c-4.214 3.672-2.533 2.988-4.627 2.206-2.094-.783-2.278-1.508 1.29-3.453 1.188-3.178 6.609-7.368 8.703-6.585 2.094.782-4.178 4.654-5.366 7.832Z"/><path fill="#FFCEA9" d="M78.836 594.032c-4.214 3.672-2.533 2.988-4.627 2.206-2.094-.783-2.278-1.508 1.29-3.453 1.188-3.178 6.609-7.368 8.703-6.585 2.094.782-4.178 4.654-5.366 7.832Z"/><path fill="#FFCEA9" d="M78.836 594.032c-4.214 3.672-2.533 2.988-4.627 2.206-2.094-.783-2.278-1.508 1.29-3.453 1.188-3.178 6.609-7.368 8.703-6.585 2.094.782-4.178 4.654-5.366 7.832Z"/><path fill="#FFCEA9" d="M78.836 594.032c-4.214 3.672-2.533 2.988-4.627 2.206-2.094-.783-2.278-1.508 1.29-3.453 1.188-3.178 6.609-7.368 8.703-6.585 2.094.782-4.178 4.654-5.366 7.832Z"/><path fill="#FFCEA9" d="M78.836 594.032c-4.214 3.672-2.533 2.988-4.627 2.206-2.094-.783-2.278-1.508 1.29-3.453 1.188-3.178 6.609-7.368 8.703-6.585 2.094.782-4.178 4.654-5.366 7.832Z"/><path fill="#FFCEA9" d="M78.836 594.032c-4.214 3.672-2.533 2.988-4.627 2.206-2.094-.783-2.278-1.508 1.29-3.453 1.188-3.178 6.609-7.368 8.703-6.585 2.094.782-4.178 4.654-5.366 7.832Z"/><path fill="#FFCEA9" d="M78.836 594.032c-4.214 3.672-2.533 2.988-4.627 2.206-2.094-.783-2.278-1.508 1.29-3.453 1.188-3.178 6.609-7.368 8.703-6.585 2.094.782-4.178 4.654-5.366 7.832Z"/><path fill="#FFCEA9" d="M78.836 594.032c-4.214 3.672-2.533 2.988-4.627 2.206-2.094-.783-2.278-1.508 1.29-3.453 1.188-3.178 6.609-7.368 8.703-6.585 2.094.782-4.178 4.654-5.366 7.832Z"/><path fill="#FFCEA9" d="M78.836 594.032c-4.214 3.672-2.533 2.988-4.627 2.206-2.094-.783-2.278-1.508 1.29-3.453 1.188-3.178 6.609-7.368 8.703-6.585 2.094.782-4.178 4.654-5.366 7.832Z"/><path fill="#FFCEA9" d="M78.836 594.032c-4.214 3.672-2.533 2.988-4.627 2.206-2.094-.783-2.278-1.508 1.29-3.453 1.188-3.178 6.609-7.368 8.703-6.585 2.094.782-4.178 4.654-5.366 7.832Z"/><path fill="#FFCEA9" d="M78.836 594.032c-4.214 3.672-2.533 2.988-4.627 2.206-2.094-.783-2.278-1.508 1.29-3.453 1.188-3.178 6.609-7.368 8.703-6.585 2.094.782-4.178 4.654-5.366 7.832Z"/><path fill="#FFCEA9" d="M81.114 596.218c-4.214 3.672-2.533 2.989-4.627 2.207-2.094-.783-2.278-1.508 1.29-3.453 1.188-3.179 7.629-8.255 9.723-7.472 2.094.782-5.198 5.54-6.386 8.718Z"/><path fill="#FFCEA9" d="M81.114 596.218c-4.214 3.672-2.533 2.989-4.627 2.207-2.094-.783-2.278-1.508 1.29-3.453 1.188-3.179 7.629-8.255 9.723-7.472 2.094.782-5.198 5.54-6.386 8.718Z"/><path fill="#FFCEA9" d="M81.114 596.218c-4.214 3.672-2.533 2.989-4.627 2.207-2.094-.783-2.278-1.508 1.29-3.453 1.188-3.179 7.629-8.255 9.723-7.472 2.094.782-5.198 5.54-6.386 8.718Z"/><path fill="#FFCEA9" d="M81.114 596.218c-4.214 3.672-2.533 2.989-4.627 2.207-2.094-.783-2.278-1.508 1.29-3.453 1.188-3.179 7.629-8.255 9.723-7.472 2.094.782-5.198 5.54-6.386 8.718Z"/><path fill="#FFCEA9" d="M81.418 598.552c-3.973 2.457-2.647 2.098-3.756 1.249-1.11-.848-.99-1.444 1.99-2.601 1.831-2.394 6.74-6.549 7.848-5.7 1.109.848-4.25 4.658-6.082 7.052Z"/><path fill="#FFCEA9" d="M81.418 598.552c-3.973 2.457-2.647 2.098-3.756 1.249-1.11-.848-.99-1.444 1.99-2.601 1.831-2.394 6.74-6.549 7.848-5.7 1.109.848-4.25 4.658-6.082 7.052Z"/><path fill="#FFCEA9" d="M81.418 598.552c-3.973 2.457-2.647 2.098-3.756 1.249-1.11-.848-.99-1.444 1.99-2.601 1.831-2.394 6.74-6.549 7.848-5.7 1.109.848-4.25 4.658-6.082 7.052Z"/><path fill="#FFCEA9" d="M81.418 598.552c-3.973 2.457-2.647 2.098-3.756 1.249-1.11-.848-.99-1.444 1.99-2.601 1.831-2.394 6.74-6.549 7.848-5.7 1.109.848-4.25 4.658-6.082 7.052Z"/><path fill="#FFCEA9" d="M81.418 598.552c-3.973 2.457-2.647 2.098-3.756 1.249-1.11-.848-.99-1.444 1.99-2.601 1.831-2.394 6.74-6.549 7.848-5.7 1.109.848-4.25 4.658-6.082 7.052Z"/><path fill="#FFCEA9" d="M81.418 598.552c-3.973 2.457-2.647 2.098-3.756 1.249-1.11-.848-.99-1.444 1.99-2.601 1.831-2.394 6.74-6.549 7.848-5.7 1.109.848-4.25 4.658-6.082 7.052Z"/><path fill="#FFCEA9" d="M81.418 598.552c-3.973 2.457-2.647 2.098-3.756 1.249-1.11-.848-.99-1.444 1.99-2.601 1.831-2.394 6.74-6.549 7.848-5.7 1.109.848-4.25 4.658-6.082 7.052Z"/><path fill="#FFCEA9" d="M81.418 598.552c-3.973 2.457-2.647 2.098-3.756 1.249-1.11-.848-.99-1.444 1.99-2.601 1.831-2.394 6.74-6.549 7.848-5.7 1.109.848-4.25 4.658-6.082 7.052Z"/><path fill="#FFCEA9" d="M81.418 598.552c-3.973 2.457-2.647 2.098-3.756 1.249-1.11-.848-.99-1.444 1.99-2.601 1.831-2.394 6.74-6.549 7.848-5.7 1.109.848-4.25 4.658-6.082 7.052Z"/><path fill="#FFCEA9" d="M81.418 598.552c-3.973 2.457-2.647 2.098-3.756 1.249-1.11-.848-.99-1.444 1.99-2.601 1.831-2.394 6.74-6.549 7.848-5.7 1.109.848-4.25 4.658-6.082 7.052Z"/><path fill="#FFCEA9" d="M81.418 598.552c-3.973 2.457-2.647 2.098-3.756 1.249-1.11-.848-.99-1.444 1.99-2.601 1.831-2.394 6.74-6.549 7.848-5.7 1.109.848-4.25 4.658-6.082 7.052Z"/><path fill="#FFCEA9" d="M81.418 598.552c-3.973 2.457-2.647 2.098-3.756 1.249-1.11-.848-.99-1.444 1.99-2.601 1.831-2.394 6.74-6.549 7.848-5.7 1.109.848-4.25 4.658-6.082 7.052Z"/><path fill="#FFCEA9" d="M82.182 600.535c-3.974 2.457-2.648 2.098-3.757 1.249-1.11-.848-.99-1.444 1.99-2.601 1.831-2.394 6.766-5.131 7.875-4.282 1.109.848-4.277 3.24-6.108 5.634Z"/><path fill="#FFCEA9" d="M82.182 600.535c-3.974 2.457-2.648 2.098-3.757 1.249-1.11-.848-.99-1.444 1.99-2.601 1.831-2.394 6.766-5.131 7.875-4.282 1.109.848-4.277 3.24-6.108 5.634Z"/><path fill="#FFCEA9" d="M82.182 600.535c-3.974 2.457-2.648 2.098-3.757 1.249-1.11-.848-.99-1.444 1.99-2.601 1.831-2.394 6.766-5.131 7.875-4.282 1.109.848-4.277 3.24-6.108 5.634Z"/><path fill="#FFCEA9" d="M82.182 600.535c-3.974 2.457-2.648 2.098-3.757 1.249-1.11-.848-.99-1.444 1.99-2.601 1.831-2.394 6.766-5.131 7.875-4.282 1.109.848-4.277 3.24-6.108 5.634ZM43.062 554.5c0 5.523-3.524 8-6.562 8-10 0 .5-12.477.5-18 4.5-2-.038-3 3-3 2.5-1 3.062 7.477 3.062 13Z"/><g style="mix-blend-mode:darken"><path fill="#0D00D9" d="M41.354 553.5c-6.162 12.5-8.13 5.325-10.901 6-6.161 1.5-9.953-4.611-9.953-14S26.505 533 35.666 533c9.162 0 5.688 11.5 5.688 20.5Z" opacity="0.5"/><path fill="#FFCEA9" d="M33.685 564c0 2.761-1.895 3.5-6.635 3.5-3.926 0-4.654-3.739-4.654-6.5 2.843-4 2.15-2 6.076-2 3.926 0 5.213 2.239 5.213 5Z"/></g><path stroke="#FFCEA9" d="M24 558v-1c1.833-.333 6.5.2 8.5-1 .4-1.2-1-11 0-11.5l1-1.5 1.5-.5 2.5-.5h4.069l.931 12.5-1.5 5-3.5 2h-4l-3 2-2 3L25 564l-2-2v-1.5c.333-.333 1-1.3 1-2.5Z"/><path stroke="#F4F4F4" d="M40.778 624.188h-5.111l-5.111-1-8.178-3.5-3.578-2-3.578-3-.51-1.5-.512-7.5-.511-8.5c0-1-.511-3.5-2.556-9.5-2.555-7.5-1.533-7.5-1.533-8 0-.4-3.067-.834-4.6-1 1.704-6.167 1.022-13 5.111-16 4.089-3 8.689-2.863 11.756-2.5.907.107.51 1.637 1.022 2.5l1.533 1.5 1.534 1c1.192.5 3.884 1.5 5.11 1.5 1.227 0 2.556-.667 3.067-1 2.215 1 6.951 3.2 8.178 4 1.533 1 3.578 2 5.622 6 1.636 3.2 2.726 9.333 3.067 12 0 .333-.92 1.5-4.6 3.5-1.636.8-4.43.666-5.622.5.51 2.5 1.942 8.3 3.578 11.5 1.635 3.2 3.407 4.645 4.088 4.812v8.688c.17.666-.102 2.6-2.555 5-2.453 2.4-4.43 2.666-5.111 2.5Z"/><path fill="#F4F4F4" d="M8.5 564.5 12 561l8.5-1 1.5.5 1 1.5.5 1 2 1.5 1.5 1 3 1h2.5l2-1L37 567l5 2.5 3.5 3 4 5.5 1.5 9.5-5 4h-5.5l4 12.5 4 4.5v10l-4 4.5-5 1.5-8.5-1-8-3.5-8.5-6-1.5-20-2.5-7-1-8H6l-1-1 1.5-9 2-4.5Z"/><path fill="#38226D" d="M100.561 653.413c-5 5.5-4.5 4-14 7.5-7.5 4-10 2.5-9.5-5.5 0-4.695 2.027 0 8-1.5 8.5-8.5 18.813-4.144 15.5-.5Z"/><path fill="#C6C6C6" fill-opacity="0.5" d="M90 638.5 287.5 525l2 1.5L90 642v-3.5Z"/><path fill="#C6C6C6" fill-opacity="0.5" d="M324.896 451.95a7.999 7.999 0 0 1 8.206.003l62.229 37.211c5.236 3.131 5.182 10.734-.097 13.79l-69.649 40.323a8 8 0 0 1-8.131-.068l-61.01-36.686c-5.18-3.115-5.168-10.627.022-13.725l68.43-40.848Z"/><path fill="#E9EAF4" d="M325.336 451.503a8 8 0 0 1 8.305.037l59.292 36.365c5.194 3.186 5.062 10.779-.241 13.781l-67.138 38.018a8 8 0 0 1-8.051-.097l-58.062-34.758c-5.182-3.102-5.189-10.608-.013-13.72l65.908-39.626Z"/><path fill="#E9EAF4" d="M325.336 451.503a8 8 0 0 1 8.305.037l59.292 36.365c5.194 3.186 5.062 10.779-.241 13.781l-67.138 38.018a8 8 0 0 1-8.051-.097l-58.062-34.758c-5.182-3.102-5.189-10.608-.013-13.72l65.908-39.626Z"/><path fill="#C6C6C6" fill-opacity="0.5" d="M323.088 476.6a8 8 0 0 1 8.415.004l18.328 11.344c5.096 3.154 5.043 10.584-.098 13.665l-21.486 12.875a8.001 8.001 0 0 1-8.34-.07l-17.955-11.175c-5.04-3.137-5.028-10.477.023-13.598l21.113-13.045Z"/><path fill="#E9EAF4" d="M323.052 476.612a8 8 0 0 1 8.454.037l14.351 9.021c5.095 3.203 4.963 10.672-.242 13.693l-17.372 10.081a7.999 7.999 0 0 1-8.198-.101l-14.021-8.601c-5.083-3.119-5.091-10.502-.014-13.63l17.042-10.5Z"/><path fill="#E9EAF4" d="M325.637 475.019a3.112 3.112 0 0 1 3.298.014L352 489c2.062 1.296 2.485 5.215.379 6.437l-13.327 7.735-13.328 7.734a3.111 3.111 0 0 1-3.197-.04l-23.052-14.142c-2.057-1.262-2.06-4.316-.005-5.582l26.167-16.123Z"/><ellipse cx="325.5" cy="495" fill="#C6C6C6" fill-opacity="0.5" rx="5.5" ry="4"/><path fill="url(#b)" d="m328.944 462.045 19.648-39.731-46.184-.642 18.537 40.262 7.999.111Zm-.444 32.004.5-36.004-8-.111-.5 36.003 8 .112Z"/><path fill="#5249E3" d="M68 627h2v15h-2z"/><path fill="#FFCEA9" d="m33.5 542.5 7-.5h1l1.5 10-3 7-2.5 2h-5l-8-1-.5-3 8-1 .5-11 1-2.5Z"/></g><defs><linearGradient id="b" x1="322" x2="325" y1="498" y2="422" gradientUnits="userSpaceOnUse"><stop stop-color="#E9EAF4"/><stop offset="1" stop-color="#D2D2D7" stop-opacity="0.4"/></linearGradient><clipPath id="a"><path fill="#fff" d="M0 0h532.837v692H0z"/></clipPath></defs></svg>