<svg xmlns="http://www.w3.org/2000/svg" fill="none" width="225" height="150" viewBox="0 0 225 150"><path d="M0 0h225v150H0z" fill="#E5E5E5"/><path d="M0 0h225v150H0z" fill="#fff"/><path d="M225 0H0v150h225V0Z" fill="#E5E5E5"/><path d="M225 0H0v150h225V0Z" fill="url(#a)"/><path d="m34.442 115 .759-.708 1.038.963-1.038.974-.754-.713-.764.713-1.032-.974 1.032-.963.759.708Zm3.31 3.057a.5.5 0 0 0 .06.25.66.66 0 0 0 .157.188.827.827 0 0 0 .223.114.929.929 0 0 0 .262.037V120a2.49 2.49 0 0 1-.803-.125 2.025 2.025 0 0 1-.631-.344 3.34 3.34 0 0 1-.524.266 4.482 4.482 0 0 1-1.24.307 5.374 5.374 0 0 1-.669.042 4.97 4.97 0 0 1-.792-.063 4.285 4.285 0 0 1-.748-.177 3.196 3.196 0 0 1-.653-.317c-.2-.129-.374-.28-.519-.454a2.14 2.14 0 0 1-.346-.604 2.199 2.199 0 0 1-.123-.755v-.266h1.451v.245a.7.7 0 0 0 .15.443c.101.128.235.236.403.323.167.083.36.149.58.198.22.045.448.069.686.073.03 0 .09-.004.179-.011a4.393 4.393 0 0 0 .703-.146c.134-.038.255-.086.363-.145a.997.997 0 0 0 .273-.219.427.427 0 0 0 .112-.292v-1.943h1.445v2.021Zm3.191 0a.5.5 0 0 0 .061.25.661.661 0 0 0 .157.188.83.83 0 0 0 .223.114.93.93 0 0 0 .262.037V120a2.56 2.56 0 0 1-.798-.12 2.174 2.174 0 0 1-.636-.338 2.166 2.166 0 0 1-.642.338c-.241.08-.662.11-1.26.089v-1.354c.401.02.643.019.725-.006a.624.624 0 0 0 .39-.302.504.504 0 0 0 .061-.25v-2.021h1.457v2.021Zm-1.747 4.542.832-.776.837.776-.837.771-.832-.771Zm-.619-1.229.832-.771.301.271c.111.1.214.196.307.286l.608-.557.826.771-.826.771-.608-.573-.608.573-.832-.771Zm5.965-3.292c0 .267-.053.517-.161.75a1.93 1.93 0 0 1-.441.609 2.082 2.082 0 0 1-.659.412 2.102 2.102 0 0 1-.798.151h-.954v-1.354h.943a.62.62 0 0 0 .424-.151.554.554 0 0 0 .14-.188.542.542 0 0 0 .055-.25v-2.021h1.451v2.042Zm-2.36 2.354.753.709.76-.709 1.043.964-1.044.969-.753-.704a49.943 49.943 0 0 0-.76.704l-1.037-.969 1.038-.964Zm6.735-2.307v.245a3.49 3.49 0 0 1 0 .276h.804V120h-.937a2.627 2.627 0 0 1-.157.495c-.07.17-.143.314-.217.432-.1.136-.222.26-.363.375a2.133 2.133 0 0 1-.486.302 2.818 2.818 0 0 1-.602.193c-.22.048-.46.073-.72.073-.153 0-.314-.009-.486-.026a4.721 4.721 0 0 1-.54-.078v-1.386c.174.066.345.117.512.151.171.038.331.058.48.058.142 0 .278-.016.408-.047a1.2 1.2 0 0 0 .362-.136.861.861 0 0 0 .436-.609v.01c.018-.229.033-.463.044-.703.015-.239.023-.496.023-.771v-.192c0-.066-.002-.134-.006-.204v-1.901h1.445v2.089Zm2.835-.521a1.703 1.703 0 0 1-.485-.057 1.395 1.395 0 0 1-.413-.182.996.996 0 0 1-.28-.308.81.81 0 0 1-.105-.416v-.078c0-.032.002-.061.005-.089.041-.222.117-.411.23-.568.115-.159.246-.317.395-.474l-.005.005a1.146 1.146 0 0 1 .061-.078l.396-.422.424-.447.419-.454c.138-.149.27-.293.396-.432l1.1.886-1.636 1.755h2.383a2.15 2.15 0 0 1 1.468.557c.186.167.331.363.435.589a1.632 1.632 0 0 1 .134.979 2.257 2.257 0 0 1-.067.276h.82V120H49.71v-1.354h4.9a.831.831 0 0 0 .279-.042.602.602 0 0 0 .2-.109.498.498 0 0 0 .117-.162.49.49 0 0 0 .04-.192.44.44 0 0 0-.045-.193.44.44 0 0 0-.123-.172.57.57 0 0 0-.195-.125.74.74 0 0 0-.274-.047h-2.857Zm13.187-1.568v2.042c0 .264-.054.512-.162.745a1.937 1.937 0 0 1-.44.609 2.142 2.142 0 0 1-1.44.568 2.22 2.22 0 0 1-.732-.12 2.164 2.164 0 0 1-.608-.338c-.19.145-.398.255-.625.328a2.756 2.756 0 0 1-.703.13 2.24 2.24 0 0 1-1.345-.458 2.155 2.155 0 0 1-.642.338 2.51 2.51 0 0 1-.792.12v-1.354a.81.81 0 0 0 .486-.151.623.623 0 0 0 .161-.188.503.503 0 0 0 .062-.25v-2.021h1.445v2.021a.6.6 0 0 0 .05.25.7.7 0 0 0 .14.183c.06.048.126.086.2.114a.631.631 0 0 0 .642-.114.615.615 0 0 0 .134-.183.543.543 0 0 0 .056-.25v-2.021h1.456v2.021a.6.6 0 0 0 .05.25.607.607 0 0 0 .33.297.878.878 0 0 0 .223.042.689.689 0 0 0 .413-.162.527.527 0 0 0 .184-.427v-2.021h1.457Zm2.405-2.234v4.24c0 .173-.006.352-.017.536a3.464 3.464 0 0 1-.078.547c-.041.177-.1.349-.179.516a1.505 1.505 0 0 1-.301.437l-.965-.515c.03-.122.052-.25.067-.386a3.47 3.47 0 0 0 .028-.458v-.104c0-.035-.003-.072-.006-.11v-4.703h1.45Zm2.634 0v4.24c0 .173-.006.352-.017.536a3.464 3.464 0 0 1-.078.547c-.041.177-.1.349-.179.516a1.507 1.507 0 0 1-.301.437l-.966-.515c.03-.122.053-.25.067-.386.02-.139.028-.292.028-.458v-.104a1.21 1.21 0 0 0-.005-.11v-4.703h1.45Zm2.41 4.261c0 .093.017.177.05.25a.673.673 0 0 0 .14.187c.06.049.125.087.196.115a.84.84 0 0 0 .228.041.544.544 0 0 0 .552-.323.608.608 0 0 0 .056-.27v-.881a.616.616 0 0 0-.055-.271.484.484 0 0 0-.14-.192.597.597 0 0 0-.413-.141.668.668 0 0 0-.424.167.573.573 0 0 0-.14.187.594.594 0 0 0-.05.25v.881Zm-1.15 2.317c.172.066.343.117.514.151a1.947 1.947 0 0 0 .854.021c.123-.024.234-.062.335-.115a.946.946 0 0 0 .463-.5 3.63 3.63 0 0 1-.268.053 2.095 2.095 0 0 1-1.004-.12 2.094 2.094 0 0 1-.62-.38 1.94 1.94 0 0 1-.43-.573 1.692 1.692 0 0 1-.156-.724v-1.032c0-.263.054-.512.162-.744a2.007 2.007 0 0 1 1.105-1.026c.253-.105.52-.157.804-.157.282 0 .548.052.798.157.252.1.472.237.658.411.19.174.339.379.447.615.111.232.167.481.167.744v.933c0 .326-.015.647-.045.963-.03.313-.083.61-.162.891a3.39 3.39 0 0 1-.306.776 2.11 2.11 0 0 1-.503.609 2.087 2.087 0 0 1-.73.401 3.036 3.036 0 0 1-.994.146c-.316 0-.679-.038-1.088-.114v-1.386Zm4.47-6.578h1.457v4.255a.5.5 0 0 0 .061.25.661.661 0 0 0 .157.188.809.809 0 0 0 .49.151V120c-.297 0-.578-.05-.842-.151a2.258 2.258 0 0 1-.686-.412 1.96 1.96 0 0 1-.469-.609 1.715 1.715 0 0 1-.167-.75v-4.276Zm4.192 6.646 1.043.969-1.043.963-1.033-.963 1.033-.969Zm3.024-1.823a2.183 2.183 0 0 0-.48.042 3.73 3.73 0 0 0-.458.125 3.782 3.782 0 0 0-.446.177c-.145.066-.29.133-.435.203-.201.097-.415.196-.642.297a6.18 6.18 0 0 1-.748.271 6.104 6.104 0 0 1-1.93.26v-1.354c.279 0 .535-.014.77-.042.234-.031.469-.081.703-.151a5.88 5.88 0 0 0 .742-.292c.264-.125.564-.281.899-.468a5.118 5.118 0 0 0-.877-.5 2.154 2.154 0 0 0-.904-.203c-.126 0-.264.017-.413.052a2.675 2.675 0 0 0-.469.151l-.005-1.292c.2-.149.394-.257.58-.323a1.644 1.644 0 0 1 1.1-.01c.186.059.372.135.558.229.186.094.368.198.547.312.182.115.357.228.524.339.149.101.298.2.446.297.153.097.306.184.458.26.156.077.313.141.469.193.156.049.314.076.474.083l-.463 1.344Zm5.39-.568a.59.59 0 0 0 .051.25.606.606 0 0 0 .33.297.89.89 0 0 0 .228.042h.28l-.475 1.344a2.288 2.288 0 0 1-.737-.214 2.149 2.149 0 0 1-.591-.422c-.168-.17-.3-.364-.397-.583a1.702 1.702 0 0 1-.145-.693v-.917c0-.263.054-.512.162-.744a2.012 2.012 0 0 1 1.1-1.026c.252-.105.52-.157.803-.157.283 0 .549.052.798.157.253.1.473.237.658.411.19.174.339.379.447.615.112.232.167.481.167.744v.896c0 .094.02.177.062.25a.66.66 0 0 0 .156.188.818.818 0 0 0 .223.114.908.908 0 0 0 .257.037V120a2.278 2.278 0 0 1-1.518-.563 1.997 1.997 0 0 1-.463-.609 1.667 1.667 0 0 1-.173-.75v-.896a.617.617 0 0 0-.056-.271.515.515 0 0 0-.33-.302.615.615 0 0 0-.222-.031.756.756 0 0 0-.23.047.589.589 0 0 0-.195.12.578.578 0 0 0-.139.187.594.594 0 0 0-.05.25v.875Zm3.963-4.406.753.714.759-.714 1.038.964-1.038.968-.753-.703c-.123.111-.251.231-.385.36a29.53 29.53 0 0 1-.374.343l-1.038-.968 1.038-.964Zm1.5 4.406c0 .094.02.177.057.25a.62.62 0 0 0 .162.188.823.823 0 0 0 .223.114.932.932 0 0 0 .262.037V120c-.286 0-.552-.04-.798-.12a2.178 2.178 0 0 1-.636-.338 2.158 2.158 0 0 1-.642.338 2.49 2.49 0 0 1-.787.12v-1.354a.805.805 0 0 0 .48-.151.619.619 0 0 0 .162-.188.5.5 0 0 0 .061-.25v-2.021h1.457v2.021Zm3.455-5.182 1.038.969-1.038.974-1.038-.974 1.038-.969Zm-.63 5.188c0 .093.016.177.05.25a.632.632 0 0 0 .145.187c.06.049.124.087.195.115.074.024.15.038.23.041a.548.548 0 0 0 .418-.13.608.608 0 0 0 .195-.463v-.881a.616.616 0 0 0-.056-.271.484.484 0 0 0-.14-.192.566.566 0 0 0-.195-.11.64.64 0 0 0-.223-.031.672.672 0 0 0-.424.167.544.544 0 0 0-.196.437v.881ZM94.391 120v-1.354h.842a1.724 1.724 0 0 1-.089-.568v-.917c0-.263.054-.512.162-.744.112-.236.26-.441.446-.615.19-.174.41-.311.659-.411.253-.105.52-.157.803-.157.283 0 .55.052.799.157.252.1.472.237.658.411.186.174.333.379.44.615.112.232.168.481.168.744v.917c0 .264-.056.514-.167.75a2.003 2.003 0 0 1-.441.615 2.168 2.168 0 0 1-.658.416c-.25.101-.516.151-.799.151l-2.823-.01Zm9.291-1.875v.245c.004.073.004.165 0 .276h.803V120h-.937a2.568 2.568 0 0 1-.156.495c-.071.17-.143.314-.218.432-.1.136-.221.26-.363.375a2.126 2.126 0 0 1-.485.302 2.803 2.803 0 0 1-.603.193 3.363 3.363 0 0 1-.72.073c-.152 0-.314-.009-.485-.026a4.71 4.71 0 0 1-.541-.078v-1.386c.174.066.346.117.513.151.171.038.331.058.48.058.141 0 .277-.016.407-.047.134-.028.255-.073.363-.136a.855.855 0 0 0 .279-.245.912.912 0 0 0 .156-.364v.01c.019-.229.034-.463.045-.703.015-.239.022-.496.022-.771v-.192c0-.066-.002-.134-.005-.204v-1.901h1.445v2.089Zm4.894-6.016 1.044.969-1.044.969-1.032-.969 1.032-.969Zm-.77 1.542.753.714.765-.714 1.032.964-1.032.968-.759-.703-.385.36c-.138.125-.262.239-.374.343l-1.043-.968 1.043-.964Zm4.163 2.385v2.021a.5.5 0 0 0 .061.25.62.62 0 0 0 .162.188.824.824 0 0 0 .223.114.913.913 0 0 0 .257.037V120c-.287 0-.552-.04-.798-.12a2.103 2.103 0 0 1-.631-.338 2.089 2.089 0 0 1-.602.333 2.414 2.414 0 0 1-.715.125c-.256 0-.5-.04-.731-.12a2.181 2.181 0 0 1-.608-.338 2.055 2.055 0 0 1-.625.328 2.764 2.764 0 0 1-.709.13 2.167 2.167 0 0 1-1.339-.464 2.083 2.083 0 0 1-.641.344c-.246.08-.51.12-.793.12v-1.354a.799.799 0 0 0 .485-.151.607.607 0 0 0 .162-.188.501.501 0 0 0 .062-.25v-2.021h1.451v2.021c0 .094.016.177.05.25a.72.72 0 0 0 .139.183c.06.048.125.086.196.114a.582.582 0 0 0 .44 0 .574.574 0 0 0 .391-.547v-2.021h1.451v2.021a.539.539 0 0 0 .184.427.644.644 0 0 0 .19.115.741.741 0 0 0 .223.047.823.823 0 0 0 .223-.042.54.54 0 0 0 .329-.297.533.533 0 0 0 .057-.25v-2.021h1.456Zm1.239 4.396.697.683.703-.683.966.933-.966.942-.697-.682c-.116.108-.235.222-.357.344l-.346.338-.96-.942.96-.933Zm1.585-2.375c0 .094.018.177.055.25a.62.62 0 0 0 .162.188.824.824 0 0 0 .223.114.934.934 0 0 0 .263.037V120c-.287 0-.553-.04-.798-.12a2.186 2.186 0 0 1-.637-.338 2.16 2.16 0 0 1-.641.338c-.242.08-.504.12-.787.12v-1.354a.805.805 0 0 0 .48-.151.62.62 0 0 0 .162-.188.511.511 0 0 0 .061-.25v-2.021h1.457v2.021Zm3.37-2.021v2.042c0 .267-.058.517-.173.75a1.896 1.896 0 0 1-.463.609 2.246 2.246 0 0 1-.692.412c-.261.101-.78.142-1.557.125v-1.354c.573.017.9.014.982-.011a.805.805 0 0 0 .229-.114.62.62 0 0 0 .162-.188.5.5 0 0 0 .061-.25v-2.021h1.451Zm-2.025 6.563.831-.771.837.771-.837.776-.831-.776Zm-.62-1.229.831-.766c.094.083.194.174.302.271.112.101.214.196.307.286l.608-.557.826.766-.826.771-.608-.568-.609.568-.831-.771Zm6.049-7.568h1.457v4.255a.5.5 0 0 0 .061.25.661.661 0 0 0 .156.188.805.805 0 0 0 .491.151V120c-.297 0-.578-.05-.842-.151a2.257 2.257 0 0 1-.687-.412 1.973 1.973 0 0 1-.469-.609 1.722 1.722 0 0 1-.167-.75v-4.276Zm3.588.563.765-.714 1.038.964-1.038.968-.759-.703c-.123.111-.251.231-.385.36-.134.125-.259.239-.374.343l-1.038-.968 1.038-.964.753.714Zm1.462 3.713c0 .267-.054.517-.162.75a1.916 1.916 0 0 1-.44.609 2.084 2.084 0 0 1-.659.412 2.102 2.102 0 0 1-.798.151h-.954v-1.354h.943a.63.63 0 0 0 .424-.151.54.54 0 0 0 .139-.188.532.532 0 0 0 .056-.25v-2.021h1.451v2.042ZM137.026 120h-.704c-.003.24-.061.469-.172.687a2.413 2.413 0 0 1-.458.615c-.19.191-.411.363-.664.516a5.092 5.092 0 0 1-.804.396 5.033 5.033 0 0 1-.876.255 4.487 4.487 0 0 1-1.256.073 2.219 2.219 0 0 1-.876-.256 2.043 2.043 0 0 1-.613-.52 2.14 2.14 0 0 1-.369-.693 2.572 2.572 0 0 1-.111-1.037 8.38 8.38 0 0 1 .028-.265l1.356-.495c-.026.149-.047.276-.062.38a2.538 2.538 0 0 0-.016.261c0 .232.035.428.106.588.07.16.165.288.284.386.123.097.262.166.419.208.156.042.319.062.491.062.227 0 .453-.027.681-.083.226-.052.431-.12.614-.203a1.94 1.94 0 0 0 .446-.271c.115-.097.173-.187.173-.271 0-.076-.082-.14-.246-.192-.163-.049-.437-.07-.82-.063l-.508.005.53-1.442 3.427.005V120Zm1.501-5.635.764-.714 1.038.964-1.038.968-.759-.703c-.122.111-.251.231-.385.36-.133.125-.258.239-.373.343l-1.039-.968 1.039-.964.753.714Zm1.462 3.713c0 .267-.054.517-.162.75a1.934 1.934 0 0 1-.441.609 2.08 2.08 0 0 1-.658.412 2.106 2.106 0 0 1-.798.151h-.955v-1.354h.944a.608.608 0 0 0 .423-.151.542.542 0 0 0 .14-.188.545.545 0 0 0 .056-.25v-2.021h1.451v2.042Zm.63-4.276h1.457v4.255a.5.5 0 0 0 .061.25.649.649 0 0 0 .157.188.799.799 0 0 0 .491.151V120c-.298 0-.579-.05-.843-.151a2.252 2.252 0 0 1-.686-.412 1.958 1.958 0 0 1-.469-.609 1.709 1.709 0 0 1-.168-.75v-4.276Zm4.347 4.261c0 .093.017.177.051.25a.67.67 0 0 0 .139.187.632.632 0 0 0 .424.156.533.533 0 0 0 .424-.13.577.577 0 0 0 .135-.193.61.61 0 0 0 .055-.27v-.881a.618.618 0 0 0-.055-.271.518.518 0 0 0-.33-.302.654.654 0 0 0-.229-.031.76.76 0 0 0-.229.047.59.59 0 0 0-.195.12.572.572 0 0 0-.19.437v.881Zm-2.282.578c.119.003.229-.004.33-.021a.84.84 0 0 0 .262-.099.536.536 0 0 0 .173-.182.548.548 0 0 0 .067-.276v-.902c0-.263.054-.512.161-.744.108-.236.255-.441.441-.615.19-.174.409-.311.659-.411.249-.105.517-.157.803-.157.283 0 .549.052.798.157.253.1.473.237.659.411.189.174.338.379.446.615.112.232.168.481.168.744v.917c0 .264-.056.514-.168.75a1.973 1.973 0 0 1-.446.615 2.168 2.168 0 0 1-.659.416 2.102 2.102 0 0 1-.798.151 2.16 2.16 0 0 1-1.345-.463c-.108.09-.221.163-.34.219-.115.055-.236.1-.363.135a3.366 3.366 0 0 1-.848.099v-1.359Zm8.315-3.172 1.255 2.833a.605.605 0 0 0 .268.25.845.845 0 0 0 .391.094V120c-.283 0-.547-.04-.792-.12a2.089 2.089 0 0 1-.637-.338 2.254 2.254 0 0 1-.613.338 2.15 2.15 0 0 1-.72.12h-1.803v-1.354h1.775a.685.685 0 0 0 .334-.073c.094-.052.14-.142.14-.271 0-.111-.046-.278-.14-.5v.005a348.272 348.272 0 0 1-.797-1.812l1.339-.526Zm4.079 2.594c0 .093.017.177.05.25a.694.694 0 0 0 .14.187.688.688 0 0 0 .429.156.533.533 0 0 0 .553-.323.61.61 0 0 0 .056-.27v-.881a.618.618 0 0 0-.196-.463.594.594 0 0 0-.413-.141.748.748 0 0 0-.228.047.588.588 0 0 0-.341.307.603.603 0 0 0-.05.25v.881Zm-.156-5.193.759.719.759-.719 1.043.969-1.043.974-.754-.714-.39.359c-.134.129-.259.247-.374.355l-1.038-.974 1.038-.969Zm3.582 7.13h-5.641v-1.354h.848a1.336 1.336 0 0 1-.072-.276 2.383 2.383 0 0 1-.017-.292v-.917c0-.263.054-.512.162-.744a2 2 0 0 1 1.105-1.026c.252-.105.52-.157.803-.157.283 0 .549.052.798.157.249.1.467.237.653.411.189.174.338.379.446.615.112.232.168.481.168.744v.917c0 .202-.028.391-.084.568h.831V120Zm2.244-1.937c0 .093.017.177.05.25a.69.69 0 0 0 .139.187.637.637 0 0 0 .424.156.545.545 0 0 0 .425-.13.59.59 0 0 0 .134-.193.61.61 0 0 0 .055-.27v-.881a.618.618 0 0 0-.055-.271.528.528 0 0 0-.134-.192.47.47 0 0 0-.196-.11.654.654 0 0 0-.229-.031.754.754 0 0 0-.228.047.595.595 0 0 0-.335.307.603.603 0 0 0-.05.25v.881Zm-2.283.578c.119.003.229-.004.33-.021a.84.84 0 0 0 .262-.099.536.536 0 0 0 .173-.182.538.538 0 0 0 .067-.276v-.902c0-.263.054-.512.162-.744.107-.236.255-.441.441-.615a2.14 2.14 0 0 1 .658-.411c.249-.105.517-.157.803-.157.283 0 .549.052.799.157.252.1.472.237.658.411.19.174.339.379.447.615.111.232.167.481.167.744v.917c0 .264-.056.514-.167.75a1.96 1.96 0 0 1-.447.615 2.111 2.111 0 0 1-1.457.567c-.256 0-.5-.041-.73-.125a2.134 2.134 0 0 1-.614-.338 1.59 1.59 0 0 1-.341.219c-.115.055-.236.1-.362.135a3.42 3.42 0 0 1-.849.099v-1.359Zm15.581-6.532 1.043.969-1.043.969-1.032-.969 1.032-.969Zm-.77 1.542.753.714.765-.714 1.037.964-1.037.968-.759-.703-.385.36c-.134.125-.259.239-.374.343l-1.044-.968 1.044-.964Zm-1.206 2.385v2.61h.62a.63.63 0 0 0 .424-.151.552.552 0 0 0 .139-.188.532.532 0 0 0 .056-.25v-2.021h1.457v2.021a.525.525 0 0 0 .184.427.693.693 0 0 0 .413.162.802.802 0 0 0 .217-.042.557.557 0 0 0 .33-.297.544.544 0 0 0 .055-.25v-2.021h1.457v2.042c0 .264-.054.512-.162.745a1.934 1.934 0 0 1-.441.609 2.137 2.137 0 0 1-1.445.568c-.26 0-.504-.04-.731-.12a2.116 2.116 0 0 1-.608-.338 2.16 2.16 0 0 1-.614.338 2.22 2.22 0 0 1-.731.12h-.664c-.06.278-.17.528-.33.75-.16.226-.353.418-.58.578a2.64 2.64 0 0 1-.748.365c-.271.087-.548.13-.831.13-.316 0-.627-.054-.932-.162a2.618 2.618 0 0 1-.815-.458 2.331 2.331 0 0 1-.575-.708 1.922 1.922 0 0 1-.217-.912v-1.953h1.456v1.927c0 .153.03.287.09.401.063.115.145.21.245.287.101.076.216.133.346.172.13.041.264.062.402.062.134 0 .266-.019.396-.057a.92.92 0 0 0 .592-.453.86.86 0 0 0 .094-.412v-3.521h1.451Zm7.411-1.781 1.044.974-1.044.964-1.032-.964 1.032-.974Zm1.434 1.74c.194.153.361.326.502.521.142.191.259.397.352.619.093.219.162.448.206.688.049.24.073.481.073.724a4.204 4.204 0 0 1-.329 1.625 3.234 3.234 0 0 1-.397.703 2.707 2.707 0 0 1-.541.568 2.356 2.356 0 0 1-1.506.515c-.32 0-.685-.069-1.094-.208v-1.365c.364.132.668.198.909.198.257 0 .479-.055.664-.166a1.39 1.39 0 0 0 .469-.433c.127-.184.22-.394.279-.63a3.002 3.002 0 0 0-.072-1.698 2.318 2.318 0 0 0-.48-.828l.965-.833Zm3.281 2.068c0 .093.017.177.051.25a.67.67 0 0 0 .139.187.644.644 0 0 0 .19.115c.074.024.15.038.229.041h.619v-1.474a.618.618 0 0 0-.056-.271.484.484 0 0 0-.139-.192.635.635 0 0 0-.424-.141.748.748 0 0 0-.229.047.6.6 0 0 0-.19.12.572.572 0 0 0-.19.437v.881Zm3.427 1.937h-.966a2.525 2.525 0 0 1-.396.839 2.462 2.462 0 0 1-1.378.927 3.297 3.297 0 0 1-.871.114c-.286 0-.61-.041-.971-.125v-1.375c.179.066.354.118.525.156a2.1 2.1 0 0 0 .843.027c.115-.021.221-.054.317-.099a.986.986 0 0 0 .268-.178.776.776 0 0 0 .185-.265.775.775 0 0 1-.129.01h-.145c-.153 0-.313-.012-.48-.036a2.685 2.685 0 0 1-.485-.12 2.135 2.135 0 0 1-.458-.224 1.677 1.677 0 0 1-.385-.344 1.68 1.68 0 0 1-.262-.479 1.932 1.932 0 0 1-.095-.635v-1.032c0-.263.054-.512.162-.744a1.95 1.95 0 0 1 .44-.615c.19-.174.41-.311.659-.411.249-.105.515-.157.798-.157.283 0 .549.052.798.157.253.1.474.237.664.411.19.174.339.379.446.615.112.232.168.481.168.744v.683c0 .17-.002.305-.006.406 0 .101-.002.179-.005.234 0 .056-.002.11-.006.162h.765V120Zm2.232-1.937c0 .093.017.177.05.25a.674.674 0 0 0 .14.187.666.666 0 0 0 .424.156.545.545 0 0 0 .424-.13.575.575 0 0 0 .134-.193.61.61 0 0 0 .055-.27v-.881a.618.618 0 0 0-.055-.271.517.517 0 0 0-.33-.302.652.652 0 0 0-.228-.031.754.754 0 0 0-.229.047.58.58 0 0 0-.195.12.574.574 0 0 0-.14.187.603.603 0 0 0-.05.25v.881Zm-2.283.578c.119.003.229-.004.33-.021a.83.83 0 0 0 .262-.099.526.526 0 0 0 .173-.182.538.538 0 0 0 .067-.276v-.902c0-.263.054-.512.162-.744.108-.236.255-.441.441-.615a2.14 2.14 0 0 1 .658-.411c.249-.105.517-.157.804-.157.282 0 .548.052.798.157.253.1.472.237.658.411.19.174.339.379.447.615.111.232.167.481.167.744v.917c0 .264-.056.514-.167.75a1.96 1.96 0 0 1-.447.615 2.11 2.11 0 0 1-1.456.567c-.257 0-.501-.041-.731-.125a2.134 2.134 0 0 1-.614-.338 1.61 1.61 0 0 1-.34.219c-.116.055-.237.1-.363.135a3.42 3.42 0 0 1-.849.099v-1.359Zm5.218-4.954c-.007-.295.101-.571.324-.828.13-.149.312-.224.547-.224a2.1 2.1 0 0 1 .731.167c.189.076.37.115.541.115.275 0 .508-.12.698-.36l.145.063c-.123.67-.419 1.005-.887 1.005-.16 0-.332-.035-.514-.104-.268-.101-.495-.151-.681-.151a.903.903 0 0 0-.748.364l-.156-.047Zm2.093.115v4.24c0 .173-.006.352-.017.536a3.384 3.384 0 0 1-.078.547 2.608 2.608 0 0 1-.179.516 1.49 1.49 0 0 1-.301.437l-.966-.515c.06-.237.09-.518.09-.844v-4.917h1.451Z" fill="#F2A100"/><path d="m113.153 21.667 31.804 18.668H81.349l31.804-18.668Zm0 71L81.349 73.999h63.608l-31.804 18.668Zm31.915-52.23h-63.83v33.46h63.83v-33.46Z" fill="#FA0"/><path d="m113.264 24.667 29.116 17.09H84.147l29.117-17.09Zm0 65L84.147 72.576h58.233l-29.116 17.09Zm29.218-47.816H84.046v30.632h58.436V41.85Z" fill="#FEE8B0"/><path d="m112.857 28 25.981 15.25H86.876L112.857 28Zm0 58-25.98-15.25h51.961L112.857 86Zm26.072-42.667H86.786v27.334h52.143V43.333Z" fill="#FA0"/><path d="M109.39 58.898c0 .669-.069 1.273-.207 1.812-.13.532-.358.987-.684 1.367-.317.372-.736.657-1.257.855-.521.197-1.164.296-1.929.296a4.75 4.75 0 0 1-.732-.057 5.322 5.322 0 0 1-.66-.125 4.333 4.333 0 0 1-.512-.171 1.085 1.085 0 0 1-.293-.16.829.829 0 0 1-.207-.365 1.66 1.66 0 0 1-.049-.33 13.212 13.212 0 0 1 0-1.14c.016-.181.036-.322.061-.42.032-.107.073-.18.122-.217a.32.32 0 0 1 .207-.069.55.55 0 0 1 .256.08c.098.046.208.095.33.148.122.054.265.107.428.16.162.045.354.068.573.068.22 0 .411-.026.574-.08a.887.887 0 0 0 .415-.296 1.46 1.46 0 0 0 .256-.57c.057-.235.086-.539.086-.911V48.645c0-.076.024-.141.073-.194a.606.606 0 0 1 .256-.148c.122-.038.289-.065.501-.08a7.49 7.49 0 0 1 .781-.034c.309 0 .566.011.769.034.203.015.366.042.488.08.13.038.22.087.269.148a.254.254 0 0 1 .085.194v10.253Zm12.781-.319c0 .775-.155 1.455-.464 2.04a4.344 4.344 0 0 1-1.257 1.47 5.692 5.692 0 0 1-1.856.877 8.408 8.408 0 0 1-2.27.296 8.76 8.76 0 0 1-1.526-.125 9.81 9.81 0 0 1-1.233-.297 6.236 6.236 0 0 1-.903-.375 2.672 2.672 0 0 1-.513-.342.869.869 0 0 1-.232-.422 4.074 4.074 0 0 1-.061-.809c0-.235.008-.433.025-.592.016-.16.04-.289.073-.388a.441.441 0 0 1 .146-.205.375.375 0 0 1 .22-.068c.114 0 .273.065.476.194.212.121.48.258.806.41.325.152.712.292 1.159.421.456.122.981.183 1.575.183.391 0 .741-.042 1.05-.126.309-.09.57-.216.781-.376.22-.159.387-.357.501-.592.114-.236.171-.498.171-.786 0-.334-.098-.62-.293-.855a2.696 2.696 0 0 0-.77-.638 6.937 6.937 0 0 0-1.061-.524c-.399-.167-.81-.342-1.233-.524a12.336 12.336 0 0 1-1.233-.615 5.32 5.32 0 0 1-1.074-.832 4.013 4.013 0 0 1-.757-1.15c-.195-.441-.293-.969-.293-1.584 0-.707.138-1.326.415-1.857.285-.54.663-.984 1.135-1.333a4.986 4.986 0 0 1 1.685-.798 7.925 7.925 0 0 1 2.063-.262c.374 0 .748.027 1.123.08a8.12 8.12 0 0 1 1.049.216c.326.091.615.194.867.308.252.114.419.209.501.285a.69.69 0 0 1 .232.41c.024.083.04.194.048.33.008.13.013.293.013.49 0 .22-.008.407-.025.559a1.454 1.454 0 0 1-.061.376.383.383 0 0 1-.122.216.292.292 0 0 1-.207.068c-.09 0-.232-.053-.428-.16a8.495 8.495 0 0 0-.72-.341 6.282 6.282 0 0 0-.989-.342 4.5 4.5 0 0 0-1.233-.16c-.35 0-.655.043-.915.126-.261.076-.48.186-.659.33a1.353 1.353 0 0 0-.391.502 1.636 1.636 0 0 0-.122.626c0 .327.094.612.281.855.195.235.451.448.769.638.325.182.691.357 1.099.524.406.16.821.33 1.245.513.423.182.838.391 1.245.626.407.228.769.505 1.086.832.317.319.574.699.769 1.14.196.432.293.945.293 1.537Z" fill="#000"/><path d="M122.857 32c2.17 0 3.929-1.642 3.929-3.667s-1.759-3.666-3.929-3.666c-2.169 0-3.928 1.641-3.928 3.666S120.688 32 122.857 32ZM102.5 89.667c2.17 0 3.929-1.642 3.929-3.667s-1.759-3.667-3.929-3.667-3.928 1.642-3.928 3.667 1.758 3.667 3.928 3.667Z" fill="#FA0"/><path d="M92.5 89.667c2.17 0 3.929-1.642 3.929-3.667s-1.76-3.667-3.929-3.667c-2.17 0-3.928 1.642-3.928 3.667s1.758 3.667 3.928 3.667Z" fill="#FFC42E"/><path d="M148.393 28.333c0 1.75-1.519 3.167-3.393 3.167-1.874 0-3.393-1.418-3.393-3.167 0-1.748 1.519-3.166 3.393-3.166 1.874 0 3.393 1.417 3.393 3.166ZM85.536 86c0 1.749-1.52 3.167-3.393 3.167-1.874 0-3.393-1.418-3.393-3.167 0-1.749 1.519-3.167 3.393-3.167 1.874 0 3.393 1.418 3.393 3.167Z" fill="#FEF2CC" stroke="#FA0" stroke-width="3"/><path d="M133.928 32c2.17 0 3.929-1.642 3.929-3.667s-1.759-3.666-3.929-3.666c-2.169 0-3.928 1.641-3.928 3.666S131.759 32 133.928 32Z" fill="#FFC42E"/><path d="M76.607 22.889c-1.052 0-1.904.796-1.904 1.778 0 .981.852 1.777 1.904 1.777s1.905-.796 1.905-1.777c0-.982-.853-1.778-1.905-1.778Zm0 52.667c-1.052 0-1.904.795-1.904 1.777 0 .982.852 1.778 1.904 1.778s1.905-.796 1.905-1.778-.853-1.777-1.905-1.777Zm-.357-50.89v52.667h.714V24.667h-.714Zm-4.464-1.777c-1.052 0-1.905.796-1.905 1.778 0 .981.853 1.777 1.905 1.777s1.904-.796 1.904-1.777c0-.982-.852-1.778-1.904-1.778Zm0 52.667c-1.052 0-1.905.795-1.905 1.777 0 .982.853 1.778 1.905 1.778s1.904-.796 1.904-1.778-.852-1.777-1.904-1.777Zm-.357-50.89v52.667h.714V24.667h-.714Zm-4.643-1.777c-1.052 0-1.905.796-1.905 1.778 0 .981.853 1.777 1.905 1.777s1.904-.796 1.904-1.777c0-.982-.852-1.778-1.904-1.778Zm0 52.667c-1.052 0-1.905.795-1.905 1.777 0 .982.853 1.778 1.905 1.778s1.904-.796 1.904-1.778-.852-1.777-1.904-1.777Zm-.357-50.89v52.667h.714V24.667h-.714Z" fill="#FA0"/><path d="M142.857 66.902h13.214M142.5 61.236h13.214" stroke="#FA0" stroke-width="2"/><path d="M143.375 73.438c-.242.173-.53.367-.812.468-.132.047-.232.028-.348.094-.257.147-.433.188-.746.188h-.75c-.047 0-.268.08-.236.152.043.102.77.035.895.035.233 0 .782.1.997-.014.228-.12.472-.402.736-.424.27-.021.466-.187.764-.187.171 0 .625-.089.625.125M137 70.75c.58-.345.917-.375 1.562-.375" stroke="#FA0" stroke-linecap="round"/><path d="M137.375 70.563c-1.737 0-3.593-.1-5.292.312-.894.217-1.825.334-2.743.371-.441.019-.933.04-1.375-.01-.591-.066-1.18-.14-1.771-.208-.446-.051-.919-.009-1.35-.157-.59-.202-1.315-.241-1.809-.645-.126-.103.843.071.965.087 1.13.14 2.24.428 3.382.437 1.269.01 2.539-.125 3.806-.125m-12.938-.25c-2.441.196-4.88.134-7.285.674-.961.215-2.146.287-3.125.187-.051-.005-.459-.055-.34-.174.106-.106.37-.112.486-.132a20.674 20.674 0 0 1 2.57-.291c1.721-.076 3.446-.108 5.166-.201 1.266-.07 2.63-.08 3.868-.372.754-.177 1.574-.08 2.316.087.359.08.793.086.983.41.037.062.229.194.16.284-.138.18-.862-.11-1.035-.16-.865-.25-1.68-.25-2.573-.25-.126 0-.507-.027-.438.216.023.078.379.036.424.038.394.017.769.184 1.156.184.959 0-1.916-.063-2.875-.063-2.414 0-4.833.109-7.243.25-1.895.112-3.79.28-5.691.247-1.027-.017-2.1-.093-3.052-.496-.425-.18-1.125-.42-1.583-.438-.1-.004.183.079.278.111.724.247 1.451.48 2.187.688.91.257 1.855.49 2.806.513.656.017 1.203-.134 1.837-.246.218-.039.465-.093.652-.222.111-.077.24-.266.039-.31-1.069-.226-2.174-.15-3.254-.093-.346.018-.681.059-1.028.059-.144 0 .02-.112.08-.125.802-.169 1.697-.063 2.514-.063.087 0 .729-.02.34-.048-1.167-.082-2.335.248-3.5.285-1.994.062-4.07-.001-6.028-.42-.673-.145-1.306-.317-2-.317-.196 0-.393-.01-.586.032-.234.05-.455.21-.691.219-.785.027-1.57.187-2.347.187h-2.16c-.35 0-.801.098-1.084-.156-.034-.031 1.176-.203 1.344-.212a9.934 9.934 0 0 1 1.906.09c1.028.142 2.19.476 3.22.243.513-.116 1.03-.09 1.555-.09.212 0 .372-.034.531.125" stroke="#FA0" stroke-linecap="round"/><path d="M89.75 70.125c-.498.097-.956.313-1.469.313-.178 0-.368.062-.562.062-.065 0-.215-.028-.268.014-.09.072-.055-.035-.138-.076m-1.376 4c-.11-.019-1.261-.126-.624-.126h.437c.085 0 .09-.017.153-.058.104-.07-.23.112-.354.121-.145.01-.305.055-.424.063-.153.008-.344.057-.188-.09.222-.21.636-.223.938-.223.067 0 .348.107.188.125-.322.036-.616.125-.952.125H84.5c-.215 0-.329-.093-.535-.139-.303-.067-1.05.096-1.291-.097-.059-.047-.272-.08-.362-.125-.142-.071-.288-.09-.437-.139m2.5-33.625h-.712 1.899c.102 0 .326.042.403-.035.22-.22-.242-.202-.392-.278-.2-.1-.689-.123-.913-.058-.289.082-.521.184-.847.184-.124 0-.206.062-.344.062-.18 0-.282.125-.438.125-.305 0-.592.063-.906.063-.177 0-.292.18-.07.187.727.025 1.414.313 2.132.313m9.438 2.5c-.843.018-1.677.187-2.514.187h-3.924m6.688-.125c.7 0 1.392-.05 2.09-.063.345-.006.674-.136 1.014-.187.47-.07.95-.075 1.424-.111 1.505-.116 3.009-.139 4.521-.139a4 4 0 0 1 .888.097c.389.083.796-.013 1.188.042.806.113 1.652.048 2.465.048h5.16" stroke="#FA0" stroke-linecap="round"/><path d="M132.938 42.875c-2.477.667-5.192 1.101-7.782.934a31.762 31.762 0 0 0-2.055-.059c-.733 0-1.467-.188-2.212-.188-1.211 0-2.511.133-3.715-.013-1.832-.222-3.664-.174-5.514-.174-.394 0-1.002.114-1.379-.031-.029-.012-.365-.053-.274-.108.346-.21.994-.15 1.368-.16.776-.021 1.551.011 2.326.049 1.172.057 2.339.052 3.511.066 1.194.014 2.389.155 3.58.246a46.14 46.14 0 0 0 3.555.126c.344 0 .702.029 1.042-.014.332-.043.693-.174 1.014-.174.227 0 .436-.063.66-.063.34 0 .68-.05 1.02-.058.637-.017 1.256.089 1.889.117.633.03 1.368-.083 1.979-.246.463-.123.98-.063 1.455-.063.193 0 .788-.107.955.014.578.42 1.608.236 2.295.236.254 0 .783-.096.983.05.064.046.186 0 .26.017.081.018.009.121.132.121h.469m5.062-2.875h-1.281c-.242 0-.428-.237-.656-.25-.147-.008-.462-.02-.594-.094-.079-.044-.226.006-.281-.062-.041-.052-.122-.148-.188-.157-.155-.019.077-.062.125-.062.334 0 .649.125.973.125.327 0 .608.188.937.188h.715c.516 0 .802.187 1.313.187" stroke="#FA0" stroke-linecap="round"/><path d="M140.125 71.688c-.058-.256-.046-.812-.281-1-.059-.047-.192-.078-.216-.16-.155-.544-.228-.018-.125.32.139.45.314.896.497 1.308.088.198.111.143-.094.097a2.455 2.455 0 0 0-.562-.066c-.559 0-1.066.063-1.625.063-.123 0-.217.141-.313.215-.089.07-.267.035-.375.035-.05 0-.274.062-.309.097-.051.051.09.136.09.247 0 .18-.402.26-.548.142-.116-.093.122-.049.187-.049h.896c.978 0 1.88-.437 2.854-.437.272 0 .545-.063.799-.063.13 0 .45-.122.549-.2.217-.175.631.07.138-.188-.306-.162-.466-.174-.812-.174m-1.125-29.438c-.063.325-.106.607-.191.903-.025.086-.097.198-.135.285-.091.204-.049-.063-.049-.156 0-.177.175-.6.028-.747-.102-.102-.265-.057-.354-.146-.021-.02.026-.223.01-.295-.045-.203-.363-.458-.496-.625-.079-.098-.329.007-.438-.045-.119-.056-.227-.136-.347-.17-.151-.043-.554-.098-.653-.222-.084-.105-.257-.034-.25.093.007.114.376.063.465.063.276 0 .525.033.785.063.261.029.433.25.688.25.241 0 .501.168.736.187.128.01.251.09.361.121.122.035.288-.043.403.018.21.111.353.236.625.236.269 0 .543-.016.812 0 .082.005.048.07.076.125.024.044.182.047.136.066-.188.075-.321.14-.511.198-.179.055-.755-.032-.826.111m-53.75-1.625c-.075-.03-.443-.217-.549-.111-.125.125.198.111.237.111.2 0 .338.005.486.139.243.222.345.324.326.673-.01.18-.438.114-.549.313-.194.35.113-.033.223.076.18.18-.09.361-.237.361-.103 0-.57.054-.548 0 .12-.289.188-.494.5-.624.375-.157.725-.126 1.097-.237.193-.057.452-.127.639-.139.121-.007.551-.124.125-.124h-1.201c-.497 0-.95.098-1.424.124-.22.013-.42-.014-.625.077-.204.09-.431.014-.625.111m-2.375-2.938c-.25.243-.494.5-.844.5-.225 0-.344.376-.594.376M87.814 73.5c-.14.023-1.176.213-1.247-.035-.023-.082-.039-.391.059-.403.225-.026.134-.431 0-.513-.267-.163-.525-.48-.906-.268-.26.145-1.19-.031-.893-.031h1.862c.349 0 .927.124 1.19.344.258.215.7.006.948.205.147.116.735.138.924.138" stroke="#FEE8B0" stroke-linecap="round"/><path d="m155.143 81.773 5.734-5.812-5.812-5.735-5.734 5.812 5.812 5.735ZM154 60.507l.104 15.5 2-.014-.104-15.5-2 .014Z" fill="#FA0"/><path d="M154.871 60.847c.059.138.309.457.494.252.075-.083.047-.175.074-.27.008-.027.142-.175.142-.134 0 .077-.228.134-.263.193-.064.107-.157.195-.245.283a1.606 1.606 0 0 1-.445.323" stroke="#FA0" stroke-linecap="round"/><defs><linearGradient id="a" x1="0" x2="214.289" y1="150" y2="-13.996" gradientUnits="userSpaceOnUse"><stop stop-color="#FFD47F"/><stop offset="1" stop-color="#FEF3CD"/></linearGradient></defs></svg>