<svg xmlns="http://www.w3.org/2000/svg" fill="none" width="225" height="150" viewBox="0 0 225 150"><path d="M0 0h225v150H0z" fill="#E5E5E5"/><path d="M0 0h225v150H0z" fill="#fff"/><path d="M225 0H0v150h225V0Z" fill="#E5E5E5"/><path d="M225 0H0v150h225V0Z" fill="url(#a)"/><path d="m59.072 113.906.863-.863 1.181 1.174-1.18 1.187-.857-.869-.87.869-1.174-1.187 1.174-1.174.863.863Zm3.764 3.726c0 .115.024.216.07.305a.798.798 0 0 0 .178.229.92.92 0 0 0 .254.139c.097.03.197.045.298.045V120a2.67 2.67 0 0 1-.914-.152 2.294 2.294 0 0 1-.717-.419 3.69 3.69 0 0 1-.597.323 4.508 4.508 0 0 1-.673.235 5.13 5.13 0 0 1-.736.14 5.733 5.733 0 0 1-.762.051c-.304 0-.605-.026-.901-.076a4.7 4.7 0 0 1-.85-.216 3.582 3.582 0 0 1-.743-.387 2.628 2.628 0 0 1-.59-.553 2.668 2.668 0 0 1-.394-.736 2.858 2.858 0 0 1-.14-.92v-.324h1.65v.298c0 .203.058.383.172.54a1.4 1.4 0 0 0 .457.393c.19.102.41.182.66.241.25.055.51.085.78.089.035 0 .102-.004.204-.012a5.14 5.14 0 0 0 .8-.178c.152-.047.29-.106.412-.178.127-.076.231-.165.311-.266a.54.54 0 0 0 .127-.356v-2.368h1.644v2.463Zm4.17.026c0 .326-.06.63-.183.914A2.352 2.352 0 0 1 64.665 120h-1.086v-1.65h1.073a.773.773 0 0 0 .26-.045.678.678 0 0 0 .38-.368.7.7 0 0 0 .064-.305v-2.463h1.65v2.489Zm-2.684 2.869.857.863.863-.863 1.187 1.174-1.187 1.181-.857-.857c-.14.135-.286.279-.438.432-.152.156-.294.298-.425.425l-1.18-1.181 1.18-1.174Zm3.402-8.081h1.657v5.186c0 .115.023.216.07.305a.798.798 0 0 0 .177.229.912.912 0 0 0 .26.139c.098.03.197.045.299.045V120a2.505 2.505 0 0 1-1.74-.686 2.386 2.386 0 0 1-.532-.742 2.211 2.211 0 0 1-.19-.914v-5.212Zm10.905 2.723v2.489c0 .321-.061.624-.184.907a2.36 2.36 0 0 1-1.237 1.245 2.3 2.3 0 0 1-.902.19 2.38 2.38 0 0 1-.831-.146 2.421 2.421 0 0 1-.692-.413 2.274 2.274 0 0 1-.711.4c-.254.089-.52.142-.8.159-.28 0-.55-.049-.813-.146a2.461 2.461 0 0 1-.717-.413c-.207.174-.45.311-.73.413a2.693 2.693 0 0 1-.901.146v-1.65a.946.946 0 0 0 .292-.045.912.912 0 0 0 .26-.139.75.75 0 0 0 .184-.229.647.647 0 0 0 .07-.305v-2.463h1.644v2.463c0 .115.02.216.057.305a.832.832 0 0 0 .159.222.798.798 0 0 0 .228.14.645.645 0 0 0 .508 0 .716.716 0 0 0 .222-.14.732.732 0 0 0 .216-.527v-2.463h1.657v2.463c0 .115.019.216.057.305a.725.725 0 0 0 .375.362.948.948 0 0 0 .253.051.743.743 0 0 0 .248-.058.658.658 0 0 0 .374-.355.766.766 0 0 0 .058-.305v-2.463h1.656ZM90.538 120h-.8c-.004.292-.07.571-.197.838-.127.266-.3.516-.52.749a3.929 3.929 0 0 1-.756.628 5.504 5.504 0 0 1-.914.483 5.48 5.48 0 0 1-.996.311 4.782 4.782 0 0 1-1.429.089 2.384 2.384 0 0 1-.996-.311 2.403 2.403 0 0 1-.699-.635 2.677 2.677 0 0 1-.418-.844 3.353 3.353 0 0 1-.127-1.264c.008-.101.019-.209.031-.323l1.543-.603c-.03.182-.053.336-.07.463a3.293 3.293 0 0 0-.02.317c0 .284.041.523.121.718.08.194.189.351.324.469.14.119.299.204.476.254.178.051.364.077.559.077.258 0 .516-.034.774-.102.258-.064.491-.146.699-.248.207-.101.376-.211.507-.33.132-.118.197-.228.197-.33 0-.093-.093-.171-.28-.235-.185-.059-.496-.084-.932-.076l-.578.007.603-1.759 3.898.007V120Zm5.833-1.676a2.36 2.36 0 0 0-.546.051 4.591 4.591 0 0 0-1.028.368c-.165.081-.33.163-.495.248a25.64 25.64 0 0 1-.73.362 6.816 6.816 0 0 1-.85.33 7.999 7.999 0 0 1-1.01.241 6.6 6.6 0 0 1-1.187.076v-1.65c.317 0 .61-.017.876-.051.267-.038.533-.1.8-.184.266-.089.548-.208.844-.356.3-.152.641-.342 1.022-.571a5.757 5.757 0 0 0-.997-.609 2.326 2.326 0 0 0-1.028-.248c-.144 0-.3.021-.47.064a2.93 2.93 0 0 0-.533.184l-.006-1.575a2.48 2.48 0 0 1 .66-.393 1.747 1.747 0 0 1 1.25-.013c.212.072.424.165.635.279.212.115.42.242.622.381.208.14.406.277.597.413.17.123.338.243.508.362a5.8 5.8 0 0 0 .52.317c.178.093.356.171.533.235.178.059.358.093.54.102l-.527 1.637Zm3.2-5.878v5.167c0 .212-.007.43-.02.654a4.428 4.428 0 0 1-.089.667 3.313 3.313 0 0 1-.203.628 1.846 1.846 0 0 1-.343.533l-1.098-.628a3.69 3.69 0 0 0 .076-.47c.022-.169.032-.355.032-.559v-.126c0-.043-.002-.087-.006-.134v-5.732h1.65Zm5.306 5.269v.298c.004.089.004.201 0 .337h.914V120h-1.066c-.038.199-.098.4-.178.603a3.701 3.701 0 0 1-.248.527 2.453 2.453 0 0 1-.412.457 2.39 2.39 0 0 1-.553.368c-.207.102-.435.18-.685.235-.25.059-.523.089-.819.089a5.16 5.16 0 0 1-.552-.032 5.086 5.086 0 0 1-.616-.095v-1.689c.199.081.394.142.584.184.195.047.377.07.546.07.161 0 .315-.019.463-.057.153-.034.29-.089.413-.165.127-.076.233-.176.317-.298.085-.123.144-.271.178-.445v.013c.021-.279.038-.565.051-.857.017-.292.025-.605.025-.939v-.235c0-.081-.002-.163-.006-.248v-2.317h1.644v2.546Zm6.494.635a.85.85 0 0 0 .33-.058.706.706 0 0 0 .228-.158.523.523 0 0 0 .133-.216.68.68 0 0 0 .039-.26.745.745 0 0 0-.204-.476c-.122-.144-.298-.227-.526-.248a1.785 1.785 0 0 0-.699.108 3.675 3.675 0 0 0-.692.336c-.224.14-.438.297-.641.47a6.21 6.21 0 0 0-.539.502h2.571Zm-5.605 1.65v-1.65h.888v-5.904h1.657v4.437c.207-.203.427-.402.66-.596.237-.195.485-.369.743-.521.258-.152.527-.275.806-.368a2.817 2.817 0 0 1 1.314-.108c.148.021.3.059.457.114.216.068.413.182.59.343.178.157.33.341.457.552.127.208.225.43.292.667.072.237.108.465.108.685 0 .322-.063.627-.19.914a2.36 2.36 0 0 1-.502.743 2.453 2.453 0 0 1-.742.508 2.257 2.257 0 0 1-.908.184h-5.63Zm14.218 0c-.41-.008-.757-.085-1.041-.229a1.892 1.892 0 0 1-.685-.59 2.488 2.488 0 0 1-.381-.857 4.682 4.682 0 0 1-.114-1.053l1.479-.584c0 .177.017.363.05.558.039.191.1.368.185.533.088.161.207.297.355.407.148.105.336.16.565.165h2.317c.228 0 .396-.051.501-.153a.483.483 0 0 0 .165-.355.584.584 0 0 0-.196-.438.68.68 0 0 0-.242-.14.833.833 0 0 0-.317-.057l-.774.013a2.557 2.557 0 0 1-.667-.057 1.659 1.659 0 0 1-.495-.204 1.286 1.286 0 0 1-.33-.323 1.186 1.186 0 0 1-.184-.584 2.352 2.352 0 0 1-.007-.172c0-.309.07-.594.21-.857a3.32 3.32 0 0 1 .539-.723c.221-.224.46-.43.718-.616.258-.186.503-.358.736-.514.042-.021.095-.055.159-.102.063-.046.114-.082.152-.108l1.022 1.321a8.035 8.035 0 0 0-.971.552 3.954 3.954 0 0 0-.813.736h.394c.228 0 .453.011.673.032.22.021.438.068.654.14h-.007c.246.084.457.194.635.33.182.135.33.29.444.463.119.169.206.354.261.552.059.199.088.4.088.603a2.331 2.331 0 0 1-.622 1.587 2.304 2.304 0 0 1-.73.527 2.344 2.344 0 0 1-.983.197h-2.743Zm8.678-1.003a.917.917 0 0 0 .457-.089.329.329 0 0 0 .184-.304.736.736 0 0 0-.051-.248 1.456 1.456 0 0 0-.159-.311 2.792 2.792 0 0 0-.4.121 1.24 1.24 0 0 0-.323.184 1.05 1.05 0 0 0-.242.266 1.487 1.487 0 0 0-.165.381h.699Zm-2.381 1.65v-1.542c.004-.305.053-.584.146-.838a2.583 2.583 0 0 1 .978-1.238c.228-.156.474-.283.736-.381-.377-.558-.759-1.123-1.149-1.694-.389-.572-.774-1.135-1.155-1.689l1.365-.933 2.374 3.472a.984.984 0 0 0 .108-.489v-2.869h1.663l.006 1.149v.153c.004.05.006.099.006.146v.209c.005.064.007.131.007.203 0 .33-.017.656-.051.978-.03.321-.102.641-.216.958a2.127 2.127 0 0 1-.273.508c-.11.152-.222.298-.336.438.135.284.232.55.292.8.063.249.095.484.095.704 0 .309-.057.586-.171.832a1.63 1.63 0 0 1-.502.609c-.22.17-.489.299-.806.388a3.945 3.945 0 0 1-1.066.133.526.526 0 0 1-.089-.007h-1.962Zm7.541-3.008c0 .114.019.215.057.304a.85.85 0 0 0 .159.229.75.75 0 0 0 .216.14.928.928 0 0 0 .26.05h.705v-1.796a.78.78 0 0 0-.064-.33.598.598 0 0 0-.387-.368.618.618 0 0 0-.254-.038.789.789 0 0 0-.26.057.724.724 0 0 0-.375.374.772.772 0 0 0-.057.305v1.073ZM137.72 120h-1.098a3.182 3.182 0 0 1-.451 1.022 2.696 2.696 0 0 1-.692.711c-.262.19-.554.33-.876.419-.317.093-.647.14-.99.14-.326 0-.694-.051-1.105-.153v-1.676c.203.081.402.144.597.191a2.159 2.159 0 0 0 .958.032c.132-.026.252-.066.362-.121.115-.055.216-.127.305-.216a.938.938 0 0 0 .209-.324.763.763 0 0 1-.146.013h-.165c-.173 0-.355-.015-.545-.044a2.95 2.95 0 0 1-.553-.146 2.373 2.373 0 0 1-.52-.273 1.974 1.974 0 0 1-.438-.419 2.125 2.125 0 0 1-.299-.584 2.543 2.543 0 0 1-.107-.775v-1.256c0-.322.061-.625.184-.908.122-.288.289-.538.501-.749.216-.212.466-.379.749-.502.284-.127.586-.19.908-.19a2.2 2.2 0 0 1 .908.19c.287.123.539.29.755.502.216.211.385.461.508.749.127.283.19.586.19.908v.831c0 .207-.002.372-.006.495 0 .123-.002.218-.007.286 0 .068-.002.133-.006.197h.87V120Zm.565.527.793.831.8-.831 1.098 1.136-1.098 1.149-.794-.832c-.131.132-.266.271-.406.419-.139.149-.271.286-.393.413l-1.092-1.149 1.092-1.136Zm1.802-2.895c0 .115.022.216.064.305a.744.744 0 0 0 .184.229.934.934 0 0 0 .254.139c.097.03.197.045.298.045V120c-.326 0-.628-.049-.908-.146a2.418 2.418 0 0 1-.723-.413 2.407 2.407 0 0 1-.73.413 2.675 2.675 0 0 1-.895.146v-1.65a.934.934 0 0 0 .286-.045.913.913 0 0 0 .26-.139.759.759 0 0 0 .184-.229.653.653 0 0 0 .07-.305v-2.463h1.656v2.463Zm6.31-.685v.711a2.284 2.284 0 0 1-.102.692h.572a.85.85 0 0 0 .33-.058.706.706 0 0 0 .228-.158.536.536 0 0 0 .134-.216.699.699 0 0 0 .038-.26.697.697 0 0 0-.051-.261.745.745 0 0 0-.146-.228.601.601 0 0 0-.222-.159.723.723 0 0 0-.311-.063h-.47Zm-3.053 1.415h.704c.085 0 .17-.012.254-.038a.61.61 0 0 0 .222-.133.601.601 0 0 0 .159-.222.796.796 0 0 0 .064-.33v-1.073a.796.796 0 0 0-.064-.33.59.59 0 0 0-.159-.235.61.61 0 0 0-.222-.133.598.598 0 0 0-.247-.038.852.852 0 0 0-.267.057.705.705 0 0 0-.387.374.772.772 0 0 0-.057.305v1.796Zm-2.52 1.638v-1.65h.876c0-.301-.002-.603-.007-.908a68.68 68.68 0 0 1-.006-.901c0-.322.061-.625.184-.908.127-.288.296-.538.508-.749.216-.212.465-.379.749-.502a2.252 2.252 0 0 1 1.511-.108c.194.055.376.132.546.229a2.439 2.439 0 0 1 .85.793h.857c.322 0 .626.064.914.191.288.123.538.29.749.501.212.212.379.462.502.749.127.288.19.593.19.914 0 .322-.063.627-.19.914a2.437 2.437 0 0 1-1.257 1.251 2.257 2.257 0 0 1-.908.184h-6.068Zm14.072-2.361c0 .114.02.215.058.304a.825.825 0 0 0 .158.229.716.716 0 0 0 .483.19c.084.009.167 0 .247-.025a.624.624 0 0 0 .381-.368.796.796 0 0 0 .064-.33v-1.073a.796.796 0 0 0-.064-.33.59.59 0 0 0-.159-.235.61.61 0 0 0-.222-.133.598.598 0 0 0-.247-.038.749.749 0 0 0-.483.203.706.706 0 0 0-.216.533v1.073Zm3.047.019c0 .321-.063.626-.19.914a2.404 2.404 0 0 1-1.257 1.257 2.27 2.27 0 0 1-.908.184c-.321 0-.626-.062-.914-.184a2.569 2.569 0 0 1-.749-.508 2.476 2.476 0 0 1-.508-.743 2.332 2.332 0 0 1-.184-.92v-1.117c0-.322.062-.625.184-.908.127-.288.297-.538.508-.749.216-.212.466-.379.749-.502.288-.127.593-.19.914-.19.322 0 .625.063.908.19.288.123.538.29.749.502.216.211.385.461.508.749.127.283.19.586.19.908v1.117Zm3.872-2.539c.22.186.411.397.572.634.161.233.294.485.4.756.105.266.184.546.234.838.055.292.083.586.083.882 0 .339-.032.677-.095 1.016a5.09 5.09 0 0 1-.28.964 3.992 3.992 0 0 1-.45.857 3.209 3.209 0 0 1-.616.692 2.585 2.585 0 0 1-1.714.629c-.364 0-.778-.085-1.244-.254v-1.663c.415.161.76.241 1.035.241.292 0 .544-.068.755-.203.216-.131.394-.307.533-.527.144-.224.25-.48.318-.768a3.909 3.909 0 0 0-.083-2.069 2.877 2.877 0 0 0-.546-1.01l1.098-1.015Zm3.72 2.52c0 .114.019.215.057.304a.85.85 0 0 0 .159.229.839.839 0 0 0 .222.14.935.935 0 0 0 .26.05.61.61 0 0 0 .248-.025.624.624 0 0 0 .381-.368.796.796 0 0 0 .063-.33v-1.073a.796.796 0 0 0-.063-.33.59.59 0 0 0-.159-.235.61.61 0 0 0-.222-.133.6.6 0 0 0-.248-.038.749.749 0 0 0-.482.203.724.724 0 0 0-.159.228.772.772 0 0 0-.057.305v1.073Zm-1.307 2.824c.194.081.389.142.584.184a2.095 2.095 0 0 0 .971.026c.139-.03.266-.076.381-.14a1.11 1.11 0 0 0 .311-.247c.093-.102.165-.223.215-.362a4.103 4.103 0 0 1-.304.063 2.243 2.243 0 0 1-1.143-.146 2.333 2.333 0 0 1-.704-.463 2.33 2.33 0 0 1-.489-.698 2.17 2.17 0 0 1-.178-.883v-1.256c0-.322.061-.625.184-.908.127-.288.296-.538.508-.749.216-.212.465-.379.749-.502.288-.127.592-.19.914-.19.322 0 .624.063.908.19a2.353 2.353 0 0 1 1.257 1.251c.127.283.19.586.19.908v1.136c0 .398-.017.789-.051 1.174a6.685 6.685 0 0 1-.184 1.086 4.29 4.29 0 0 1-.349.945 2.529 2.529 0 0 1-.571.743 2.347 2.347 0 0 1-.832.489 3.273 3.273 0 0 1-1.13.178c-.359 0-.772-.047-1.237-.14v-1.689Zm7.122-5.897c.237.191.476.405.717.642.245.236.468.488.666.755.199.262.362.537.489.825.127.284.195.571.203.863.005.322-.055.627-.177.914a2.311 2.311 0 0 1-.508.743 2.449 2.449 0 0 1-.749.508 2.304 2.304 0 0 1-.914.184h-1.74v-1.65h1.714a.85.85 0 0 0 .33-.058.71.71 0 0 0 .229-.158.534.534 0 0 0 .133-.216.773.773 0 0 0 .045-.26.883.883 0 0 0-.159-.413 3.345 3.345 0 0 0-.375-.463 6.12 6.12 0 0 0-.501-.483 49.87 49.87 0 0 0-.552-.469l1.149-1.264Z" fill="#6458FF"/><rect fill="#6458FF" width="143" height="72" x="41" y="20" rx="5"/><rect fill="#CFCCFD" width="139" height="13" x="43" y="22" rx="4"/><rect fill="#CFCCFD" width="100" height="52" x="82" y="37" rx="4"/><rect fill="#CFCCFD" width="37" height="26" x="43" y="63" rx="4"/><rect fill="#CFCCFD" width="37" height="24" x="43" y="37" rx="4"/><path d="M108.29 66.772c0 .042-.015.08-.044.114a.27.27 0 0 1-.134.082 1.327 1.327 0 0 1-.254.051c-.105.013-.239.02-.4.02-.165 0-.302-.007-.412-.02a1.327 1.327 0 0 1-.254-.05.31.31 0 0 1-.133-.083.182.182 0 0 1-.038-.114v-3.32h-3.073v3.32c0 .042-.012.08-.038.114a.267.267 0 0 1-.133.082 1.344 1.344 0 0 1-.254.051 3.43 3.43 0 0 1-.406.02c-.161 0-.296-.007-.406-.02a1.327 1.327 0 0 1-.254-.05.314.314 0 0 1-.14-.083.188.188 0 0 1-.038-.114v-7.757c0-.043.013-.08.038-.115a.313.313 0 0 1 .14-.082c.063-.021.148-.038.254-.05.11-.014.245-.02.406-.02.165 0 .3.006.406.02.106.012.19.029.254.05a.266.266 0 0 1 .133.082.182.182 0 0 1 .038.115v3.015h3.073v-3.015c0-.043.012-.08.038-.115a.309.309 0 0 1 .133-.082c.063-.021.148-.038.254-.05.11-.014.247-.02.412-.02.161 0 .295.006.4.02.106.012.191.029.254.05a.27.27 0 0 1 .134.082.171.171 0 0 1 .044.115v7.757Zm7.255-7.3c0 .122-.006.228-.019.317a.808.808 0 0 1-.044.21.265.265 0 0 1-.083.114.15.15 0 0 1-.101.038h-2.057v6.62c0 .043-.015.08-.044.115a.27.27 0 0 1-.134.082c-.063.021-.15.038-.26.051-.106.013-.239.02-.4.02a3.54 3.54 0 0 1-.406-.02 1.344 1.344 0 0 1-.254-.05.31.31 0 0 1-.139-.083.183.183 0 0 1-.039-.114V60.15h-2.056a.16.16 0 0 1-.108-.038.293.293 0 0 1-.076-.114 1.041 1.041 0 0 1-.051-.21 3.224 3.224 0 0 1-.013-.317c0-.127.004-.235.013-.324a.913.913 0 0 1 .051-.21.24.24 0 0 1 .076-.114.16.16 0 0 1 .108-.038h5.789a.15.15 0 0 1 .101.038c.034.021.062.06.083.114a.741.741 0 0 1 .044.21c.013.089.019.197.019.324Zm10.544 7.3c0 .042-.013.08-.038.114-.021.034-.064.061-.127.082a1.21 1.21 0 0 1-.241.051 3.15 3.15 0 0 1-.388.02c-.152 0-.279-.007-.38-.02a1.197 1.197 0 0 1-.242-.05.27.27 0 0 1-.127-.083.188.188 0 0 1-.038-.114v-6.685h-.012l-2.381 6.678a.333.333 0 0 1-.082.14.43.43 0 0 1-.159.082.917.917 0 0 1-.248.038 4.497 4.497 0 0 1-.736-.006 1.206 1.206 0 0 1-.254-.044.519.519 0 0 1-.152-.09.24.24 0 0 1-.076-.12l-2.298-6.678h-.013v6.684c0 .043-.013.08-.038.115-.021.034-.063.061-.127.082a1.324 1.324 0 0 1-.247.051c-.098.013-.225.02-.381.02a3.06 3.06 0 0 1-.381-.02 1.336 1.336 0 0 1-.248-.05.27.27 0 0 1-.127-.083.212.212 0 0 1-.031-.114v-7.32c0-.215.057-.38.171-.494a.618.618 0 0 1 .457-.172h1.092a2.2 2.2 0 0 1 .501.05.903.903 0 0 1 .616.452c.068.118.127.266.178.444l1.777 4.894h.025l1.841-4.881c.055-.178.115-.328.178-.451.068-.123.144-.222.229-.298a.741.741 0 0 1 .311-.16c.118-.033.256-.05.412-.05h1.124a.85.85 0 0 1 .292.045c.084.03.152.074.203.133a.484.484 0 0 1 .12.21c.03.08.045.173.045.279v7.319Zm6.303-.47c0 .127-.006.235-.019.323a.906.906 0 0 1-.044.216.27.27 0 0 1-.083.12.16.16 0 0 1-.108.039h-3.764a.537.537 0 0 1-.355-.12c-.094-.085-.14-.22-.14-.407v-7.458c0-.043.013-.08.038-.115a.313.313 0 0 1 .14-.082c.063-.021.148-.038.254-.05.11-.014.245-.02.406-.02.165 0 .3.006.406.02.106.012.19.029.254.05a.266.266 0 0 1 .133.082c.03.034.045.072.045.115v6.608h2.583a.16.16 0 0 1 .108.038c.034.02.061.059.083.114.021.05.036.12.044.21.013.084.019.19.019.317Zm9.179-2.952c0 .119-.007.218-.019.298a.706.706 0 0 1-.057.197.27.27 0 0 1-.089.102.202.202 0 0 1-.108.031h-1.974v2.152c0 .043-.011.08-.032.115a.284.284 0 0 1-.108.082.877.877 0 0 1-.203.05c-.085.014-.19.02-.317.02s-.233-.006-.318-.02a.89.89 0 0 1-.203-.05.351.351 0 0 1-.114-.082.212.212 0 0 1-.032-.115v-2.15h-1.968a.202.202 0 0 1-.108-.032.299.299 0 0 1-.082-.102.802.802 0 0 1-.064-.197 2.053 2.053 0 0 1-.019-.298 2 2 0 0 1 .019-.292.788.788 0 0 1 .051-.197.291.291 0 0 1 .083-.108.168.168 0 0 1 .101-.031h1.987v-2.146c0-.042.011-.08.032-.114a.243.243 0 0 1 .114-.089.7.7 0 0 1 .203-.057 2.21 2.21 0 0 1 .318-.02c.127 0 .232.007.317.02a.691.691 0 0 1 .203.057c.051.021.087.05.108.089a.213.213 0 0 1 .032.114v2.146h1.993a.16.16 0 0 1 .095.031.228.228 0 0 1 .083.108.628.628 0 0 1 .057.197 2 2 0 0 1 .019.292Zm9.851 2.406a2.661 2.661 0 0 1-.038.463.49.49 0 0 1-.051.134.75.75 0 0 1-.101.133 1.405 1.405 0 0 1-.273.184 3.16 3.16 0 0 1-.489.222 4.366 4.366 0 0 1-1.46.242c-.563 0-1.07-.088-1.523-.261a3.02 3.02 0 0 1-1.155-.774 3.494 3.494 0 0 1-.73-1.295c-.17-.517-.254-1.117-.254-1.803 0-.698.093-1.318.279-1.86.186-.542.446-.996.781-1.365a3.272 3.272 0 0 1 1.199-.838c.47-.19.986-.285 1.549-.285a3.709 3.709 0 0 1 1.244.21c.182.059.345.128.489.209.144.08.243.15.299.21a.625.625 0 0 1 .12.139.547.547 0 0 1 .051.146c.013.06.021.129.025.21.009.08.013.18.013.298a3.3 3.3 0 0 1-.013.323.825.825 0 0 1-.044.216.301.301 0 0 1-.076.12.153.153 0 0 1-.102.039c-.063 0-.144-.036-.241-.108a3.099 3.099 0 0 0-.381-.248 2.683 2.683 0 0 0-.552-.247 2.262 2.262 0 0 0-.762-.114 1.85 1.85 0 0 0-.876.203 1.865 1.865 0 0 0-.654.571 2.695 2.695 0 0 0-.406.895c-.093.351-.14.747-.14 1.187 0 .483.049.901.146 1.257a2.5 2.5 0 0 0 .426.87c.186.228.408.4.666.514.263.11.557.165.883.165.296 0 .552-.034.768-.102a3.32 3.32 0 0 0 .552-.235 4.25 4.25 0 0 0 .381-.228c.101-.068.18-.102.235-.102.042 0 .076.009.101.026.025.017.047.05.064.101.017.051.029.123.038.216.008.089.012.21.012.362Zm6.069-1.219c0 .432-.081.81-.241 1.136a2.39 2.39 0 0 1-.654.82 2.885 2.885 0 0 1-.965.488c-.368.11-.762.165-1.181.165a4.26 4.26 0 0 1-.793-.07 4.845 4.845 0 0 1-.641-.165 3.11 3.11 0 0 1-.47-.21 1.372 1.372 0 0 1-.267-.19.49.49 0 0 1-.12-.235 2.452 2.452 0 0 1-.032-.45c0-.131.004-.241.013-.33.008-.09.021-.161.038-.216a.24.24 0 0 1 .076-.115.186.186 0 0 1 .114-.038c.059 0 .142.036.248.108.11.068.249.144.419.229.169.085.37.163.603.235.237.067.51.101.819.101.203 0 .385-.023.545-.07.161-.05.297-.12.407-.209a.861.861 0 0 0 .26-.33c.059-.131.089-.277.089-.438a.752.752 0 0 0-.153-.476 1.412 1.412 0 0 0-.399-.356 3.535 3.535 0 0 0-.553-.292c-.207-.093-.421-.19-.641-.292a6.18 6.18 0 0 1-.641-.342 2.844 2.844 0 0 1-.559-.464 2.294 2.294 0 0 1-.393-.64 2.295 2.295 0 0 1-.152-.883c0-.394.072-.739.215-1.035.149-.3.345-.548.591-.742.249-.2.541-.348.876-.445a3.86 3.86 0 0 1 1.072-.146 3.963 3.963 0 0 1 1.13.165c.17.051.32.108.451.172.131.063.218.116.26.158a.378.378 0 0 1 .121.229.882.882 0 0 1 .025.184 4.113 4.113 0 0 1-.006.584.859.859 0 0 1-.032.21.218.218 0 0 1-.063.12.148.148 0 0 1-.108.038.524.524 0 0 1-.222-.089 4.425 4.425 0 0 0-.375-.19 3.11 3.11 0 0 0-.514-.19 2.192 2.192 0 0 0-.641-.09c-.182 0-.341.024-.476.07a.946.946 0 0 0-.343.184.737.737 0 0 0-.203.28.971.971 0 0 0-.064.349c0 .182.049.34.146.476.102.131.235.25.4.355.17.102.36.2.572.292.211.09.427.184.647.286.22.102.436.218.648.349.211.127.399.281.564.463.166.178.299.39.4.635.102.241.153.527.153.857Zm6.144 0c0 .432-.08.81-.241 1.136a2.39 2.39 0 0 1-.654.82 2.876 2.876 0 0 1-.965.488c-.368.11-.761.165-1.18.165a4.27 4.27 0 0 1-.794-.07 4.845 4.845 0 0 1-.641-.165 3.156 3.156 0 0 1-.47-.21 1.39 1.39 0 0 1-.266-.19.5.5 0 0 1-.121-.235 3.734 3.734 0 0 1-.019-.78c.009-.09.021-.161.038-.216a.248.248 0 0 1 .076-.115.187.187 0 0 1 .115-.038c.059 0 .141.036.247.108.11.068.25.144.419.229.169.085.37.163.603.235.237.067.51.101.819.101.203 0 .385-.023.546-.07.161-.05.296-.12.406-.209a.861.861 0 0 0 .26-.33 1.04 1.04 0 0 0 .089-.438.751.751 0 0 0-.152-.476 1.43 1.43 0 0 0-.4-.356 3.568 3.568 0 0 0-.552-.292c-.208-.093-.421-.19-.641-.292a6.18 6.18 0 0 1-.641-.342 2.787 2.787 0 0 1-.559-.464 2.273 2.273 0 0 1-.394-.64 2.314 2.314 0 0 1-.152-.883c0-.394.072-.739.216-1.035.148-.3.345-.548.59-.742.25-.2.542-.348.876-.445a3.868 3.868 0 0 1 1.073-.146 3.963 3.963 0 0 1 1.13.165 3.1 3.1 0 0 1 .451.172c.131.063.218.116.26.158a.37.37 0 0 1 .12.229.873.873 0 0 1 .026.184 5.08 5.08 0 0 1-.007.584.864.864 0 0 1-.031.21.218.218 0 0 1-.064.12c-.025.025-.061.038-.108.038a.534.534 0 0 1-.222-.089 4.244 4.244 0 0 0-.374-.19 3.145 3.145 0 0 0-.514-.19 2.199 2.199 0 0 0-.642-.09c-.182 0-.34.024-.476.07a.95.95 0 0 0-.342.184.75.75 0 0 0-.204.28.97.97 0 0 0-.063.349c0 .182.049.34.146.476.102.131.235.25.4.355.169.102.36.2.571.292.212.09.428.184.648.286.22.102.435.218.647.349.212.127.4.281.565.463.165.178.298.39.4.635.101.241.152.527.152.857Z" fill="#6458FF"/><defs><linearGradient id="a" x1="0" x2="214.289" y1="150" y2="-13.996" gradientUnits="userSpaceOnUse"><stop stop-color="#A9A3FF"/><stop offset="1" stop-color="#D8D5FD"/></linearGradient></defs></svg>