<svg width="661" height="117" viewBox="0 0 661 117" fill="none" xmlns="http://www.w3.org/2000/svg">
<path d="M0.566439 58.5752L15.0752 72.9336L29.4336 58.4248L14.9248 44.0664L0.566439 58.5752ZM123.434 57.9352L108.925 43.5769L94.5665 58.0856L109.075 72.444L123.434 57.9352ZM15.013 61L109.013 60.5104L108.987 55.5105L14.987 56L15.013 61Z" fill="#0011AB"/>
<path d="M537.566 58.5648L552.075 72.9231L566.434 58.4144L551.925 44.056L537.566 58.5648ZM660.434 57.9248L645.925 43.5664L631.566 58.0752L646.075 72.4336L660.434 57.9248ZM552.013 60.9896L646.013 60.5L645.987 55.5L551.987 55.9896L552.013 60.9896Z" fill="#0011AB"/>
<path d="M591 58.5L560.5 45.5L532.5 0.909309L554.5 58.5L532.5 116.091L563.5 72.5L591 58.5Z" fill="#0011AB"/>
<path d="M72 58.5907L102.5 45.5907L130.5 1.00001L108.5 58.5907L130.5 116.181L99.5 72.5907L72 58.5907Z" fill="#0011AB"/>
</svg>
