<svg width="65" height="60" viewBox="0 0 65 60" fill="none" xmlns="http://www.w3.org/2000/svg">
<path d="M41.8544 55.6895C30.8135 45.3091 31.634 46.0819 21.9133 37.027C12.1926 27.9721 12.6423 28.3741 6.09081 22.1934C12.664 15.1369 27.4306 15.5624 37.1513 24.6173C46.8719 33.6722 48.4276 48.6329 41.8544 55.6895Z" fill="#FFBB13"/>
<path d="M64.6879 20.492C58.3124 14.1838 58.787 14.6526 53.2237 9.09689C47.6603 3.54117 47.9077 3.79855 44.1121 0.0557976C40.079 4.09441 41.9367 11.4443 47.5 17C53.0633 22.5557 60.6549 24.5306 64.6879 20.492Z" fill="#FFBB13"/>
<path d="M41.605 37.112L27.5568 23.3148L45.995 8.51404L56.1548 18.5484L41.605 37.112Z" fill="#FFBB13"/>
<path d="M19.1752 37.3475L24.5 42.2044L1.4739 59.7278L19.1752 37.3475Z" fill="#FFBB13"/>
</svg>
