<svg xmlns="http://www.w3.org/2000/svg" viewBox="0 0 210 125"><path fill="url(#a)" d="M0 0h210v125H0z"/><path fill="#9F3CFB" d="m69.813 101.68 1.095 1.095-1.096 1.084-1.084-1.084 1.085-1.095Zm2.507-5.18c.188.137.348.299.48.486.138.184.247.375.329.575.066.164.113.326.14.486.032.16.047.318.047.475 0 .413-.105.794-.316 1.142a2.495 2.495 0 0 1-.897.861c-.32.188-.677.329-1.072.422a5.342 5.342 0 0 1-2.502-.017 3.852 3.852 0 0 1-1.13-.487 2.7 2.7 0 0 1-.797-.808 2.127 2.127 0 0 1-.3-1.137v-.299h1.518v.276c0 .187.057.353.17.498.117.14.27.26.457.357.188.094.4.166.639.217a3.875 3.875 0 0 0 1.36.017c.206-.035.398-.087.573-.158a1.84 1.84 0 0 0 .458-.27 1.04 1.04 0 0 0 .292-.368c.02-.11.03-.202.03-.276 0-.187-.045-.365-.135-.533a3.212 3.212 0 0 0-.363-.527l1.02-.932Zm3.282 2.32c0 .106.017.2.052.282.04.082.088.152.147.21a.75.75 0 0 0 .205.13.843.843 0 0 0 .24.046c.078.008.154 0 .229-.023a.575.575 0 0 0 .351-.34.732.732 0 0 0 .059-.305v-.99a.732.732 0 0 0-.059-.305.577.577 0 0 0-.352-.34.573.573 0 0 0-.228-.035.69.69 0 0 0-.445.188.655.655 0 0 0-.2.492v.99Zm-1.208 2.608c.18.074.36.131.54.17.18.043.347.064.504.064.132 0 .263-.014.392-.041a1.24 1.24 0 0 0 .352-.129c.109-.058.205-.135.287-.228a.99.99 0 0 0 .199-.334 2.033 2.033 0 0 1-.55.076 2.08 2.08 0 0 1-.786-.152 2.186 2.186 0 0 1-.65-.428 2.163 2.163 0 0 1-.451-.645 2.009 2.009 0 0 1-.165-.814v-1.16c0-.297.057-.576.17-.838.117-.266.274-.496.47-.692a2.25 2.25 0 0 1 .69-.463c.266-.117.547-.175.844-.175.297 0 .576.058.838.175a2.169 2.169 0 0 1 1.16 1.155c.118.262.176.54.176.838v1.049c0 .367-.016.728-.047 1.084a6.159 6.159 0 0 1-.17 1.001 3.972 3.972 0 0 1-.322.873 2.339 2.339 0 0 1-.527.686 2.168 2.168 0 0 1-.768.451 3 3 0 0 1-1.043.164c-.332 0-.713-.043-1.143-.129v-1.558Zm14.96-.428h-.739a1.84 1.84 0 0 1-.181.773 2.68 2.68 0 0 1-.48.692 3.66 3.66 0 0 1-.698.58c-.262.172-.543.32-.844.445a4.994 4.994 0 0 1-.92.287 4.38 4.38 0 0 1-1.318.082 2.185 2.185 0 0 1-.92-.287 2.196 2.196 0 0 1-.645-.586 2.46 2.46 0 0 1-.386-.779 3.087 3.087 0 0 1-.117-1.166c.007-.094.017-.193.029-.299l1.424-.556c-.028.168-.05.31-.065.427a3.04 3.04 0 0 0-.017.293c0 .262.037.483.11.662.075.18.175.325.3.434.129.109.275.187.44.234.163.047.335.071.515.071.238 0 .476-.032.715-.094a3.21 3.21 0 0 0 .644-.229c.192-.093.348-.195.469-.304.121-.11.182-.211.182-.305 0-.086-.086-.158-.258-.217-.172-.054-.46-.078-.862-.07l-.533.006.557-1.623 3.597.006V101Zm5.384-1.547a2.16 2.16 0 0 0-.504.047c-.16.035-.32.082-.48.14a4.018 4.018 0 0 0-.469.2c-.152.074-.304.15-.457.228a18.5 18.5 0 0 1-.674.334c-.238.114-.5.215-.785.305a7.31 7.31 0 0 1-.931.223 6.08 6.08 0 0 1-1.096.07v-1.523c.293 0 .562-.016.808-.047a4.69 4.69 0 0 0 .739-.17 5.99 5.99 0 0 0 .779-.328c.277-.141.592-.317.943-.528a5.333 5.333 0 0 0-.92-.562 2.147 2.147 0 0 0-.949-.229c-.133 0-.277.02-.433.059a2.737 2.737 0 0 0-.493.17l-.005-1.453c.21-.168.414-.29.609-.364a1.625 1.625 0 0 1 1.154-.011c.195.066.39.152.586.258a6 6 0 0 1 .574.351 30.052 30.052 0 0 1 1.02.715c.16.11.32.207.48.293.164.086.329.158.493.217.164.054.33.086.498.093l-.487 1.512Zm2.953-5.426v4.77c0 .195-.005.396-.017.603a4.089 4.089 0 0 1-.082.616 3.066 3.066 0 0 1-.188.58 1.726 1.726 0 0 1-.316.492l-1.014-.58a3.57 3.57 0 0 0 .07-.434c.02-.156.03-.328.03-.515v-.118c0-.039-.002-.08-.006-.123v-5.29h1.523Zm4.899 4.864v.275c.004.082.004.186 0 .31h.844V101h-.985c-.035.184-.09.369-.164.557-.074.191-.15.353-.228.486a2.321 2.321 0 0 1-.381.422 2.256 2.256 0 0 1-.51.34 2.79 2.79 0 0 1-.633.216c-.23.055-.482.083-.756.083-.16 0-.33-.01-.51-.03a4.467 4.467 0 0 1-.568-.088v-1.558c.184.074.364.131.54.17.179.043.347.064.503.064.149 0 .291-.017.428-.053.141-.031.268-.082.381-.152a.938.938 0 0 0 .293-.275c.078-.114.133-.25.164-.411v.012a27.21 27.21 0 0 0 .07-1.658v-.217c0-.074-.002-.15-.006-.228v-2.14h1.518v2.35Zm5.994.586a.804.804 0 0 0 .305-.053.656.656 0 0 0 .211-.147.498.498 0 0 0 .123-.199.635.635 0 0 0 .035-.24.684.684 0 0 0-.188-.44c-.113-.132-.275-.209-.486-.228a1.66 1.66 0 0 0-.645.1 3.339 3.339 0 0 0-.638.31 4.849 4.849 0 0 0-.592.434c-.188.156-.354.31-.498.463h2.373ZM103.41 101v-1.523h.82v-5.45h1.53v4.096c.191-.188.394-.371.609-.55.219-.18.447-.34.686-.481.238-.14.486-.254.744-.34a2.592 2.592 0 0 1 1.213-.099c.136.019.277.054.422.105.199.062.38.168.545.316.164.145.304.315.421.51.118.191.207.397.27.615a2.07 2.07 0 0 1-.076 1.477 2.202 2.202 0 0 1-1.149 1.154c-.261.113-.541.17-.838.17h-5.197Zm12.574-2.18c0 .106.018.2.053.282a.745.745 0 0 0 .147.21.75.75 0 0 0 .205.13.639.639 0 0 0 .24.046c.078.008.154 0 .228-.023a.562.562 0 0 0 .205-.123.601.601 0 0 0 .147-.217.732.732 0 0 0 .059-.305v-.99a.732.732 0 0 0-.059-.305.54.54 0 0 0-.147-.216.563.563 0 0 0-.205-.123.57.57 0 0 0-.228-.036.675.675 0 0 0-.592.398.711.711 0 0 0-.053.282v.99Zm2.813.018a2.19 2.19 0 0 1-.645 1.535 2.246 2.246 0 0 1-.691.469c-.262.113-.541.17-.838.17-.297 0-.578-.057-.844-.17a2.358 2.358 0 0 1-.691-.469 2.273 2.273 0 0 1-.469-.686 2.148 2.148 0 0 1-.17-.85v-1.03c0-.297.057-.576.17-.838.117-.266.274-.496.469-.692.199-.195.43-.35.691-.463a2.07 2.07 0 0 1 .844-.175c.297 0 .576.058.838.175a2.179 2.179 0 0 1 1.16 1.155c.117.262.176.54.176.838v1.03Zm2.473-4.81v4.769c0 .195-.006.396-.018.603a4.128 4.128 0 0 1-.082.616 3.068 3.068 0 0 1-.188.58 1.718 1.718 0 0 1-.316.492l-1.014-.58a3.51 3.51 0 0 0 .071-.434c.019-.156.029-.328.029-.515v-.118c0-.039-.002-.08-.006-.123v-5.29h1.524Zm3.867 2.466c.203.172.379.367.527.586.148.215.272.447.369.697.098.246.17.504.217.774.051.27.076.54.076.814 0 .313-.029.625-.088.938a4.597 4.597 0 0 1-.258.89 3.676 3.676 0 0 1-.416.791 2.987 2.987 0 0 1-.568.639 2.398 2.398 0 0 1-1.582.58c-.336 0-.719-.078-1.148-.234v-1.535c.382.148.701.222.955.222.269 0 .502-.062.697-.187.199-.121.363-.283.492-.487a2.24 2.24 0 0 0 .293-.709 3.577 3.577 0 0 0-.076-1.91 2.638 2.638 0 0 0-.504-.931l1.014-.938Zm6.375 2.32c0 .106.017.2.052.282.04.082.088.15.147.205a.68.68 0 0 0 .199.129.844.844 0 0 0 .24.047h.293l-.498 1.511a2.257 2.257 0 0 1-1.81-1.37 2.015 2.015 0 0 1-.153-.78v-1.031c0-.297.057-.576.17-.838a2.183 2.183 0 0 1 1.155-1.154c.265-.118.547-.176.843-.176.297 0 .577.058.838.175a2.176 2.176 0 0 1 1.16 1.155c.118.262.176.54.176.838v1.007c0 .106.022.2.065.282a.72.72 0 0 0 .164.21c.07.055.148.098.234.13.09.027.18.04.27.04V101c-.309 0-.6-.057-.873-.17a2.346 2.346 0 0 1-.721-.463 2.25 2.25 0 0 1-.486-.685 1.971 1.971 0 0 1-.182-.844V97.83a.732.732 0 0 0-.059-.305.584.584 0 0 0-.14-.216.596.596 0 0 0-.44-.158.736.736 0 0 0-.24.052.664.664 0 0 0-.352.346.711.711 0 0 0-.052.281v.984Zm7.845-6.691 1.096 1.09-1.096 1.09-1.084-1.09 1.084-1.09Zm-.808 1.734.791.803.803-.803 1.084 1.084-1.084 1.09-.797-.79-.405.403c-.144.141-.275.27-.392.387l-1.096-1.09 1.096-1.084Zm4.371 2.684v2.273c0 .106.021.2.064.282a.692.692 0 0 0 .405.34c.09.027.179.04.269.04V101c-.301 0-.58-.045-.838-.135a2.153 2.153 0 0 1-.662-.381 2.104 2.104 0 0 1-.633.375 2.366 2.366 0 0 1-.75.141c-.269 0-.525-.045-.767-.135a2.234 2.234 0 0 1-.639-.381 2.124 2.124 0 0 1-.656.37c-.234.082-.483.13-.744.146-.258 0-.508-.045-.75-.135a2.33 2.33 0 0 1-.657-.386 2.161 2.161 0 0 1-.673.386c-.258.09-.535.135-.832.135v-1.523a.882.882 0 0 0 .269-.041.677.677 0 0 0 .41-.34.597.597 0 0 0 .065-.282v-2.273h1.523v2.273c0 .106.018.2.053.282a.794.794 0 0 0 .146.205.756.756 0 0 0 .206.129.582.582 0 0 0 .462 0 .636.636 0 0 0 .352-.334.647.647 0 0 0 .059-.282v-2.273h1.523v2.273a.618.618 0 0 0 .393.61.722.722 0 0 0 .234.053.647.647 0 0 0 .439-.176.592.592 0 0 0 .141-.205.647.647 0 0 0 .059-.282v-2.273h1.529Zm3.064 2.28c0 .105.018.198.053.28a.745.745 0 0 0 .147.212.71.71 0 0 0 .211.128.84.84 0 0 0 .24.047c.078.008.154 0 .228-.023a.57.57 0 0 0 .352-.34.732.732 0 0 0 .058-.305v-.99a.732.732 0 0 0-.058-.305.572.572 0 0 0-.352-.34.57.57 0 0 0-.228-.035.736.736 0 0 0-.24.053.656.656 0 0 0-.358.346.711.711 0 0 0-.053.281v.99Zm-.164-5.843.797.81.797-.81 1.096 1.09-1.096 1.096-.791-.803a32.932 32.932 0 0 0-.803.803l-1.09-1.096 1.09-1.09Zm3.762 8.022h-5.924v-1.523h.891a1.678 1.678 0 0 1-.076-.311 3.006 3.006 0 0 1-.018-.328v-1.031c0-.297.057-.576.17-.838.117-.266.273-.496.469-.692.199-.195.429-.35.691-.463a2.07 2.07 0 0 1 .844-.175c.297 0 .576.058.838.175a2.197 2.197 0 0 1 1.154 1.155c.117.262.176.54.176.838v1.03c0 .227-.029.44-.088.64h.873V101Zm1.447-7.113 1.096 1.09-1.096 1.09-1.084-1.09 1.084-1.09Zm.744 2.654v2.297a2.124 2.124 0 0 1-.668 1.53 2.334 2.334 0 0 1-1.599.632v-1.523a.762.762 0 0 0 .504-.17.692.692 0 0 0 .17-.211.596.596 0 0 0 .064-.282v-2.273h1.529ZM126.5 31.926c0 10.453-20 41.074-20 41.074S87 42.379 87 31.926C87 21.474 92.693 13 106.5 13s20 8.474 20 18.926Z"/><ellipse cx="106.5" cy="31" fill="#E0BFFF" rx="8.5" ry="8"/><defs><linearGradient id="a" x1="-3.12924e-06" x2="182.824" y1="125" y2="-31.7059" gradientUnits="userSpaceOnUse"><stop stop-color="#C991FF"/><stop offset="1" stop-color="#E8CEFF"/></linearGradient></defs></svg>