<svg xmlns="http://www.w3.org/2000/svg" viewBox="0 0 210 125"><path fill="url(#a)" d="M0 0h210v125H0z"/><path fill="#005CC7" d="M61.437 52.56V74h-2.88l-.52-2.84h-.16a5.802 5.802 0 0 1-1.76 1.84 7.5 7.5 0 0 1-2.36 1.04c-.853.24-1.746.36-2.68.36-1.706 0-3.146-.267-4.32-.8a5.624 5.624 0 0 1-2.6-2.56c-.586-1.147-.88-2.627-.88-4.44V52.56h3.56v13.8c0 1.707.387 2.987 1.16 3.84.773.853 1.974 1.28 3.6 1.28 1.6 0 2.853-.293 3.76-.88.934-.613 1.587-1.493 1.96-2.64.4-1.173.6-2.587.6-4.24V52.56h3.52Zm10.327 0V74h-3.52V52.56h3.52Zm-1.72-8.04c.533 0 1 .187 1.4.56.426.347.64.907.64 1.68 0 .747-.214 1.307-.64 1.68-.4.373-.867.56-1.4.56-.587 0-1.08-.187-1.48-.56-.4-.373-.6-.933-.6-1.68 0-.773.2-1.333.6-1.68.4-.373.893-.56 1.48-.56Zm75.26 8.04V74h-2.88l-.52-2.84h-.16a5.799 5.799 0 0 1-1.76 1.84c-.72.48-1.506.827-2.36 1.04-.853.24-1.746.36-2.68.36-1.706 0-3.146-.267-4.32-.8a5.629 5.629 0 0 1-2.6-2.56c-.586-1.147-.88-2.627-.88-4.44V52.56h3.56v13.8c0 1.707.387 2.987 1.16 3.84.774.853 1.974 1.28 3.6 1.28 1.6 0 2.854-.293 3.76-.88.934-.613 1.587-1.493 1.96-2.64.4-1.173.6-2.587.6-4.24V52.56h3.52Zm11.887 10.48-7.4-10.48h4l5.52 8.08 5.48-8.08h3.96l-7.4 10.48 7.8 10.96h-4l-5.84-8.56-5.92 8.56h-3.96l7.76-10.96Z"/><defs><linearGradient id="a" x1="-3.12924e-06" x2="182.824" y1="125" y2="-31.7059" gradientUnits="userSpaceOnUse"><stop stop-color="#5EA8FF"/><stop offset="1" stop-color="#C7E1FF"/></linearGradient></defs></svg>